<?xml version="1.0" encoding="UTF-8"?>
<svg xmlns="http://www.w3.org/2000/svg" xmlns:xlink="http://www.w3.org/1999/xlink" viewBox="0 0 240 240" width="240px" height="240px">
<defs>
<linearGradient id="linear0" gradientUnits="userSpaceOnUse" x1="94.263168" y1="157.075424" x2="104.425499" y2="115.358253" gradientTransform="matrix(1.395349,0,0,1.395349,0,0)">
<stop offset="0" style="stop-color:rgb(95.686275%,30.980393%,35.294119%);stop-opacity:1;"/>
<stop offset="0.443" style="stop-color:rgb(93.333334%,23.921569%,29.019609%);stop-opacity:1;"/>
<stop offset="1" style="stop-color:rgb(89.803922%,12.54902%,18.82353%);stop-opacity:1;"/>
</linearGradient>
<linearGradient id="linear1" gradientUnits="userSpaceOnUse" x1="103.916672" y1="8.18075" x2="103.916672" y2="78.951576" gradientTransform="matrix(4.999995,0,0,4.999995,0,0)">
<stop offset="0" style="stop-color:rgb(96.078432%,72.549021%,40.392157%);stop-opacity:1;"/>
<stop offset="1" style="stop-color:rgb(92.156863%,65.882355%,29.411766%);stop-opacity:1;"/>
</linearGradient>
<linearGradient id="linear2" gradientUnits="userSpaceOnUse" x1="371.118683" y1="435.041962" x2="463.654663" y2="809.500061" gradientTransform="matrix(1.395349,0,0,1.395349,0,0)">
<stop offset="0" style="stop-color:rgb(96.078432%,72.549021%,40.392157%);stop-opacity:1;"/>
<stop offset="1" style="stop-color:rgb(92.156863%,65.882355%,29.411766%);stop-opacity:1;"/>
</linearGradient>
<linearGradient id="linear3" gradientUnits="userSpaceOnUse" x1="559.358948" y1="1395.626831" x2="661.01825" y2="1027.429321" gradientTransform="matrix(1.395349,0,0,1.395349,0,0)">
<stop offset="0" style="stop-color:rgb(95.686275%,30.980393%,35.294119%);stop-opacity:1;"/>
<stop offset="0.443" style="stop-color:rgb(93.333334%,23.921569%,29.019609%);stop-opacity:1;"/>
<stop offset="1" style="stop-color:rgb(89.803922%,12.54902%,18.82353%);stop-opacity:1;"/>
</linearGradient>
<linearGradient id="linear4" gradientUnits="userSpaceOnUse" x1="-130.720001" y1="1490.180542" x2="240.943329" y2="1490.180542" gradientTransform="matrix(1.395349,0,0,1.395349,0,0)">
<stop offset="0" style="stop-color:rgb(95.686275%,30.980393%,35.294119%);stop-opacity:1;"/>
<stop offset="0.443" style="stop-color:rgb(93.333334%,23.921569%,29.019609%);stop-opacity:1;"/>
<stop offset="1" style="stop-color:rgb(89.803922%,12.54902%,18.82353%);stop-opacity:1;"/>
</linearGradient>
<linearGradient id="linear5" gradientUnits="userSpaceOnUse" x1="93.886917" y1="41.831829" x2="93.886917" y2="167.001251" gradientTransform="matrix(1.395349,0,0,1.395349,0,0)">
<stop offset="0" style="stop-color:rgb(94.509804%,76.862746%,5.882353%);stop-opacity:1;"/>
<stop offset="1" style="stop-color:rgb(90.196079%,49.411765%,13.333334%);stop-opacity:1;"/>
</linearGradient>
</defs>
<g id="surface29657853">
<path style=" stroke:none;fill-rule:nonzero;fill:rgb(70.19608%,8.235294%,13.725491%);fill-opacity:1;" d="M 141.890625 181.800781 L 155 160 L 170 160 L 168.222656 198.070312 C 168.035156 198.859375 167.480469 199.507812 166.730469 199.8125 C 165.980469 200.117188 165.128906 200.042969 164.445312 199.605469 L 142.40625 185.582031 C 141.789062 185.1875 141.371094 184.539062 141.273438 183.8125 C 141.171875 183.082031 141.398438 182.347656 141.890625 181.800781 Z M 141.890625 181.800781 "/>
<path style=" stroke:none;fill-rule:nonzero;fill:url(#linear0);" d="M 125.640625 181.800781 L 144.914062 160 L 159.914062 160 L 151.972656 198.070312 C 151.785156 198.859375 151.230469 199.507812 150.480469 199.8125 C 149.730469 200.117188 148.878906 200.042969 148.195312 199.605469 L 126.15625 185.582031 C 125.539062 185.1875 125.121094 184.539062 125.023438 183.8125 C 124.921875 183.082031 125.148438 182.347656 125.640625 181.800781 Z M 125.640625 181.800781 "/>
<path style=" stroke:none;fill-rule:nonzero;fill:url(#linear1);" d="M 190 92.5 C 190 118.734375 169.851562 140 145 140 C 120.148438 140 100 118.734375 100 92.5 C 100 66.265625 120.148438 45 145 45 C 169.851562 45 190 66.265625 190 92.5 Z M 190 92.5 "/>
<path style=" stroke:none;fill-rule:nonzero;fill:url(#linear2);" d="M 90 100 C 90 95 81.046875 85 70 85 C 58.953125 85 50 98.339844 50 110 C 50 121.660156 58.953125 127.222656 70 127.222656 C 81.046875 127.222656 90 120 90 100 Z M 90 100 "/>
<path style=" stroke:none;fill-rule:nonzero;fill:rgb(85.09804%,44.705883%,9.411765%);fill-opacity:1;" d="M 112.773438 40.839844 C 111.289062 39.828125 109.371094 39.691406 107.757812 40.484375 C 106.144531 41.273438 105.078125 42.871094 104.96875 44.667969 C 104.859375 46.460938 105.722656 48.175781 107.226562 49.160156 C 120 57.675781 120 71.9375 120 90 C 120 92.761719 122.238281 95 125 95 C 127.761719 95 130 92.761719 130 90 C 130 70.625 130 52.324219 112.773438 40.839844 Z M 112.773438 40.839844 "/>
<path style=" stroke:none;fill-rule:nonzero;fill:rgb(85.09804%,44.705883%,9.411765%);fill-opacity:1;" d="M 137 31 C 135.9375 31.796875 135.238281 32.980469 135.050781 34.292969 C 134.863281 35.605469 135.203125 36.9375 136 38 C 149.3125 55.746094 140.285156 88.304688 140.191406 88.632812 C 139.433594 91.289062 140.972656 94.054688 143.628906 94.8125 C 146.285156 95.566406 149.050781 94.027344 149.808594 91.371094 C 150.246094 89.847656 160.304688 53.734375 144 32.003906 C 142.34375 29.792969 139.210938 29.34375 137 31 Z M 137 31 "/>
<path style=" stroke:none;fill-rule:nonzero;fill:rgb(85.09804%,44.705883%,9.411765%);fill-opacity:1;" d="M 88.257812 61.121094 L 87.574219 60.714844 C 85.207031 59.292969 82.132812 60.058594 80.714844 62.425781 C 79.292969 64.792969 80.058594 67.867188 82.425781 69.289062 L 83.136719 69.710938 C 89.445312 73.472656 100 79.761719 100 95 C 100 97.761719 102.238281 100 105 100 C 107.761719 100 110 97.761719 110 95 C 109.757812 80.5 101.339844 67.382812 88.257812 61.121094 Z M 88.257812 61.121094 "/>
<path style=" stroke:none;fill-rule:nonzero;fill:rgb(85.09804%,44.705883%,9.411765%);fill-opacity:1;" d="M 204.984375 49.585938 C 204.890625 48.257812 204.261719 47.023438 203.246094 46.164062 C 202.230469 45.304688 200.910156 44.890625 199.585938 45.019531 C 198.261719 45.128906 197.039062 45.757812 196.183594 46.769531 C 195.328125 47.78125 194.90625 49.09375 195.015625 50.414062 C 196.152344 64.042969 190.433594 79.671875 182 86 C 179.789062 87.65625 179.34375 90.792969 181 93 C 182.65625 95.210938 185.792969 95.65625 188 94 C 199.097656 85.679688 206.398438 66.582031 204.984375 49.585938 Z M 204.984375 49.585938 "/>
<path style=" stroke:none;fill-rule:nonzero;fill:rgb(85.09804%,44.705883%,9.411765%);fill-opacity:1;" d="M 174.472656 32.761719 C 173.675781 31.160156 172.085938 30.105469 170.296875 29.996094 C 168.511719 29.890625 166.804688 30.742188 165.820312 32.238281 C 164.835938 33.730469 164.722656 35.636719 165.527344 37.238281 C 174.3125 54.808594 168.949219 77.890625 161.238281 86.710938 C 160.054688 88.050781 159.683594 89.925781 160.257812 91.617188 C 160.835938 93.3125 162.269531 94.570312 164.027344 94.914062 C 165.78125 95.257812 167.589844 94.640625 168.761719 93.289062 C 178.359375 82.324219 185.683594 55.1875 174.472656 32.761719 Z M 174.472656 32.761719 "/>
<path style=" stroke:none;fill-rule:nonzero;fill:url(#linear3);" d="M 60 180.4375 L 60 157.53125 C 59.988281 155.289062 61.628906 153.375 63.847656 153.046875 C 69.183594 152.273438 78.183594 149.664062 78.183594 140.871094 L 110 140.871094 C 110 165.390625 90 182.910156 65.007812 184.984375 C 63.730469 185.097656 62.457031 184.671875 61.507812 183.808594 C 60.554688 182.945312 60.007812 181.722656 60 180.4375 Z M 60 180.4375 "/>
<path style=" stroke:none;fill-rule:nonzero;fill:url(#linear4);" d="M 45 133.75 L 45 116.019531 L 13.535156 86.371094 C 12.121094 85.019531 10.054688 84.605469 8.226562 85.304688 C 6.402344 86.007812 5.144531 87.703125 5 89.65625 L 5 111.066406 C 5.042969 114.027344 6.621094 116.753906 9.167969 118.261719 C 11.914062 119.964844 15 122.429688 15 124.890625 C 15 127.355469 11.914062 129.816406 9.167969 131.519531 C 6.621094 133.027344 5.042969 135.753906 5 138.714844 L 5 160.128906 C 5.144531 162.078125 6.398438 163.773438 8.226562 164.476562 C 10.054688 165.179688 12.121094 164.765625 13.535156 163.414062 Z M 45 133.75 "/>
<path style=" stroke:none;fill-rule:nonzero;fill:url(#linear5);" d="M 230 137.75 C 220.753906 146.945312 209.683594 154.097656 197.5 158.75 C 185.839844 163.199219 173.761719 166.464844 161.449219 168.5 C 149.046875 170.578125 136.363281 170.324219 124.050781 167.75 C 118.636719 166.660156 113.308594 165.1875 108.101562 163.351562 C 100 160.5 91.898438 157.050781 83.75 154 C 67.5 147.851562 51.25 143.101562 35 135.300781 L 32.699219 134.199219 C 30.300781 133.058594 28.460938 131.003906 27.585938 128.496094 C 26.714844 125.988281 26.878906 123.234375 28.050781 120.851562 C 29.433594 118.09375 31.988281 116.109375 35 115.449219 C 43.101562 113.75 51.25 111.550781 59.398438 109 C 61.25 108.449219 63.101562 107.851562 65 107.25 C 71.367188 105.304688 77.628906 103.019531 83.75 100.398438 C 95.699219 95.25 107.148438 89.050781 119.449219 84.851562 C 127.695312 82.066406 136.300781 80.484375 145 80.148438 C 147.949219 80.050781 150.949219 80.101562 153.898438 80.25 C 174.003906 82.144531 193.453125 88.390625 210.898438 98.550781 C 218.339844 102.085938 224.988281 107.085938 230.449219 113.25 C 236.675781 120.296875 236.480469 130.933594 230 137.75 Z M 230 137.75 "/>
<path style=" stroke:none;fill-rule:nonzero;fill:rgb(20.392157%,20.392157%,20.392157%);fill-opacity:1;" d="M 205 120 C 205 122.761719 202.761719 125 200 125 C 197.238281 125 195 122.761719 195 120 C 195 117.238281 197.238281 115 200 115 C 202.761719 115 205 117.238281 205 120 Z M 205 120 "/>
<path style=" stroke:none;fill-rule:nonzero;fill:rgb(90.196079%,49.411765%,13.333334%);fill-opacity:1;" d="M 145.921875 156.164062 L 176.027344 146.101562 C 178.402344 145.308594 180 143.089844 180 140.589844 C 180 137.378906 177.398438 134.777344 174.1875 134.777344 L 145 134.777344 C 142.238281 134.777344 140 137.015625 140 139.777344 L 140 151.25 C 140 152.734375 140.664062 154.144531 141.804688 155.097656 C 142.949219 156.046875 144.460938 156.4375 145.921875 156.164062 Z M 145.921875 156.164062 "/>
<path style=" stroke:none;fill-rule:nonzero;fill:rgb(90.196079%,49.411765%,13.333334%);fill-opacity:1;" d="M 145 80.148438 L 145 115 C 145 120.523438 140.523438 125 135 125 C 129.476562 125 125 120.523438 125 115 C 125 112.238281 122.761719 110 120 110 C 117.238281 110 115 112.238281 115 115 L 115 120 C 114.960938 125.507812 110.507812 129.960938 105 130 C 99.484375 129.984375 95.015625 125.515625 95 120 L 95 115 C 95 112.238281 92.761719 110 90 110 C 87.238281 110 85 112.238281 85 115 C 84.960938 120.507812 80.507812 124.960938 75 125 C 69.484375 124.984375 65.015625 120.515625 65 115 L 65 107.25 C 71.367188 105.304688 77.628906 103.019531 83.75 100.398438 C 95.699219 95.25 107.148438 89.050781 119.449219 84.851562 C 127.695312 82.066406 136.300781 80.484375 145 80.148438 Z M 145 80.148438 "/>
</g>
</svg>
