<?xml version="1.0" encoding="UTF-8"?>
<svg xmlns="http://www.w3.org/2000/svg" xmlns:xlink="http://www.w3.org/1999/xlink" viewBox="0 0 144 144" width="144px" height="144px">
<defs>
<linearGradient id="linear0" gradientUnits="userSpaceOnUse" x1="103.916672" y1="8.18075" x2="103.916672" y2="78.951576" gradientTransform="matrix(2.999997,0,0,2.999997,0,0)">
<stop offset="0" style="stop-color:rgb(80.000001%,80.000001%,80.000001%);stop-opacity:1;"/>
<stop offset="1" style="stop-color:rgb(100%,100%,100%);stop-opacity:1;"/>
</linearGradient>
<linearGradient id="linear1" gradientUnits="userSpaceOnUse" x1="371.118683" y1="435.041962" x2="463.654663" y2="809.500061" gradientTransform="matrix(0.837209,0,0,0.837209,0,0)">
<stop offset="0" style="stop-color:rgb(80.000001%,80.000001%,80.000001%);stop-opacity:1;"/>
<stop offset="1" style="stop-color:rgb(100%,100%,100%);stop-opacity:1;"/>
</linearGradient>
</defs>
<g id="surface3672861">
<path style=" stroke:none;fill-rule:nonzero;fill:rgb(40.000001%,40.000001%,40.000001%);fill-opacity:1;" d="M 85.136719 109.082031 L 93 96 L 102 96 L 100.933594 118.84375 C 100.820312 119.316406 100.488281 119.707031 100.039062 119.886719 C 99.589844 120.070312 99.078125 120.023438 98.667969 119.765625 L 85.445312 111.351562 C 85.074219 111.113281 84.824219 110.722656 84.765625 110.289062 C 84.703125 109.851562 84.839844 109.410156 85.136719 109.082031 Z M 85.136719 109.082031 "/>
<path style=" stroke:none;fill-rule:nonzero;fill:rgb(40.000001%,40.000001%,40.000001%);fill-opacity:1;" d="M 75.386719 109.082031 L 86.949219 96 L 95.949219 96 L 91.183594 118.84375 C 91.070312 119.316406 90.738281 119.707031 90.289062 119.886719 C 89.839844 120.070312 89.328125 120.023438 88.917969 119.765625 L 75.695312 111.351562 C 75.324219 111.113281 75.074219 110.722656 75.015625 110.289062 C 74.953125 109.851562 75.089844 109.410156 75.386719 109.082031 Z M 75.386719 109.082031 "/>
<path style=" stroke:none;fill-rule:nonzero;fill:url(#linear0);" d="M 114 55.5 C 114 71.238281 101.910156 84 87 84 C 72.089844 84 60 71.238281 60 55.5 C 60 39.761719 72.089844 27 87 27 C 101.910156 27 114 39.761719 114 55.5 Z M 114 55.5 "/>
<path style=" stroke:none;fill-rule:nonzero;fill:url(#linear1);" d="M 54 60 C 54 57 48.628906 51 42 51 C 35.371094 51 30 59.003906 30 66 C 30 72.996094 35.371094 76.332031 42 76.332031 C 48.628906 76.332031 54 72 54 60 Z M 54 60 "/>
<path style=" stroke:none;fill-rule:nonzero;fill:rgb(80.000001%,80.000001%,80.000001%);fill-opacity:1;" d="M 67.664062 24.503906 C 66.773438 23.898438 65.625 23.816406 64.65625 24.289062 C 63.6875 24.765625 63.046875 25.722656 62.980469 26.800781 C 62.914062 27.878906 63.433594 28.90625 64.335938 29.496094 C 72 34.605469 72 43.164062 72 54 C 72 55.65625 73.34375 57 75 57 C 76.65625 57 78 55.65625 78 54 C 78 42.375 78 31.394531 67.664062 24.503906 Z M 67.664062 24.503906 "/>
<path style=" stroke:none;fill-rule:nonzero;fill:rgb(80.000001%,80.000001%,80.000001%);fill-opacity:1;" d="M 82.199219 18.601562 C 81.5625 19.078125 81.140625 19.789062 81.03125 20.574219 C 80.917969 21.363281 81.121094 22.164062 81.601562 22.800781 C 89.585938 33.449219 84.171875 52.984375 84.113281 53.179688 C 83.660156 54.773438 84.585938 56.433594 86.175781 56.886719 C 87.769531 57.339844 89.429688 56.417969 89.882812 54.824219 C 90.148438 53.910156 96.183594 32.242188 86.398438 19.203125 C 85.40625 17.875 83.527344 17.605469 82.199219 18.601562 Z M 82.199219 18.601562 "/>
<path style=" stroke:none;fill-rule:nonzero;fill:rgb(80.000001%,80.000001%,80.000001%);fill-opacity:1;" d="M 52.953125 36.671875 L 52.542969 36.429688 C 51.125 35.574219 49.28125 36.035156 48.429688 37.457031 C 47.574219 38.875 48.035156 40.71875 49.457031 41.574219 L 49.882812 41.828125 C 53.667969 44.082031 60 47.855469 60 57 C 60 58.65625 61.34375 60 63 60 C 64.65625 60 66 58.65625 66 57 C 65.855469 48.300781 60.804688 40.429688 52.953125 36.671875 Z M 52.953125 36.671875 "/>
<path style=" stroke:none;fill-rule:nonzero;fill:rgb(80.000001%,80.000001%,80.000001%);fill-opacity:1;" d="M 122.988281 29.75 C 122.933594 28.953125 122.558594 28.214844 121.949219 27.699219 C 121.339844 27.183594 120.546875 26.933594 119.75 27.011719 C 118.957031 27.078125 118.222656 27.457031 117.710938 28.0625 C 117.195312 28.667969 116.945312 29.457031 117.011719 30.25 C 117.691406 38.425781 114.261719 47.804688 109.199219 51.601562 C 107.875 52.59375 107.605469 54.476562 108.601562 55.800781 C 109.59375 57.125 111.476562 57.394531 112.800781 56.398438 C 119.460938 51.40625 123.839844 39.949219 122.988281 29.75 Z M 122.988281 29.75 "/>
<path style=" stroke:none;fill-rule:nonzero;fill:rgb(80.000001%,80.000001%,80.000001%);fill-opacity:1;" d="M 104.683594 19.65625 C 104.207031 18.695312 103.25 18.0625 102.179688 18 C 101.105469 17.933594 100.082031 18.445312 99.492188 19.34375 C 98.902344 20.238281 98.832031 21.382812 99.316406 22.34375 C 104.589844 32.886719 101.371094 46.734375 96.742188 52.027344 C 96.035156 52.832031 95.808594 53.953125 96.15625 54.972656 C 96.5 55.988281 97.363281 56.742188 98.414062 56.949219 C 99.46875 57.15625 100.554688 56.785156 101.257812 55.972656 C 107.015625 49.394531 111.410156 33.113281 104.683594 19.65625 Z M 104.683594 19.65625 "/>
<path style=" stroke:none;fill-rule:nonzero;fill:rgb(40.000001%,40.000001%,40.000001%);fill-opacity:1;" d="M 36 108.261719 L 36 94.519531 C 35.992188 93.171875 36.976562 92.027344 38.308594 91.828125 C 41.511719 91.363281 46.910156 89.800781 46.910156 84.523438 L 66 84.523438 C 66 99.234375 54 109.746094 39.003906 110.988281 C 38.238281 111.058594 37.476562 110.804688 36.902344 110.285156 C 36.332031 109.765625 36.003906 109.035156 36 108.261719 Z M 36 108.261719 "/>
<path style=" stroke:none;fill-rule:nonzero;fill:rgb(40.000001%,40.000001%,40.000001%);fill-opacity:1;" d="M 27 80.25 L 27 69.613281 L 8.121094 51.820312 C 7.273438 51.011719 6.03125 50.761719 4.9375 51.183594 C 3.839844 51.605469 3.085938 52.621094 3 53.792969 L 3 66.640625 C 3.023438 68.417969 3.972656 70.050781 5.5 70.957031 C 7.148438 71.980469 9 73.457031 9 74.933594 C 9 76.414062 7.148438 77.890625 5.5 78.910156 C 3.972656 79.816406 3.023438 81.453125 3 83.230469 L 3 96.078125 C 3.085938 97.246094 3.839844 98.265625 4.9375 98.6875 C 6.03125 99.105469 7.273438 98.859375 8.121094 98.046875 Z M 27 80.25 "/>
<path style=" stroke:none;fill-rule:nonzero;fill:rgb(80.000001%,80.000001%,80.000001%);fill-opacity:1;" d="M 138 82.648438 C 132.453125 88.167969 125.808594 92.460938 118.5 95.25 C 111.503906 97.917969 104.257812 99.878906 96.871094 101.101562 C 89.425781 102.347656 81.816406 102.195312 74.429688 100.652344 C 71.183594 99.996094 67.984375 99.113281 64.859375 98.011719 C 60 96.300781 55.140625 94.230469 50.25 92.402344 C 40.5 88.710938 30.75 85.859375 21 81.179688 L 19.621094 80.519531 C 18.179688 79.835938 17.074219 78.601562 16.550781 77.097656 C 16.027344 75.59375 16.128906 73.941406 16.828125 72.511719 C 17.660156 70.855469 19.191406 69.664062 21 69.269531 C 25.859375 68.25 30.75 66.929688 35.640625 65.398438 C 36.75 65.070312 37.859375 64.710938 39 64.351562 C 42.820312 63.183594 46.578125 61.8125 50.25 60.238281 C 57.421875 57.148438 64.289062 53.429688 71.671875 50.910156 C 76.617188 49.238281 81.78125 48.289062 87 48.089844 C 88.769531 48.03125 90.570312 48.058594 92.339844 48.148438 C 104.402344 49.285156 116.070312 53.035156 126.539062 59.128906 C 131.003906 61.25 134.992188 64.25 138.269531 67.949219 C 142.003906 72.179688 141.886719 78.5625 138 82.648438 Z M 138 82.648438 "/>
<path style=" stroke:none;fill-rule:nonzero;fill:rgb(20.392157%,20.392157%,20.392157%);fill-opacity:1;" d="M 123 72 C 123 73.65625 121.65625 75 120 75 C 118.34375 75 117 73.65625 117 72 C 117 70.34375 118.34375 69 120 69 C 121.65625 69 123 70.34375 123 72 Z M 123 72 "/>
<path style=" stroke:none;fill-rule:nonzero;fill:rgb(80.000001%,80.000001%,80.000001%);fill-opacity:1;" d="M 87.550781 93.699219 L 105.617188 87.660156 C 107.039062 87.1875 108 85.855469 108 84.355469 C 108 82.425781 106.4375 80.867188 104.511719 80.867188 L 87 80.867188 C 85.34375 80.867188 84 82.207031 84 83.867188 L 84 90.75 C 84 91.640625 84.398438 92.488281 85.082031 93.058594 C 85.769531 93.628906 86.675781 93.863281 87.550781 93.699219 Z M 87.550781 93.699219 "/>
<path style=" stroke:none;fill-rule:nonzero;fill:rgb(80.000001%,80.000001%,80.000001%);fill-opacity:1;" d="M 87 48.089844 L 87 69 C 87 72.3125 84.3125 75 81 75 C 77.6875 75 75 72.3125 75 69 C 75 67.34375 73.65625 66 72 66 C 70.34375 66 69 67.34375 69 69 L 69 72 C 68.976562 75.304688 66.304688 77.976562 63 78 C 59.691406 77.992188 57.007812 75.308594 57 72 L 57 69 C 57 67.34375 55.65625 66 54 66 C 52.34375 66 51 67.34375 51 69 C 50.976562 72.304688 48.304688 74.976562 45 75 C 41.691406 74.992188 39.007812 72.308594 39 69 L 39 64.351562 C 42.820312 63.183594 46.578125 61.8125 50.25 60.238281 C 57.421875 57.148438 64.289062 53.429688 71.671875 50.910156 C 76.617188 49.238281 81.78125 48.289062 87 48.089844 Z M 87 48.089844 "/>
</g>
</svg>
