<?xml version="1.0" encoding="UTF-8"?>
<svg xmlns="http://www.w3.org/2000/svg" xmlns:xlink="http://www.w3.org/1999/xlink" viewBox="0 0 96 96" width="96px" height="96px">
<g id="surface20588704">
<path style=" stroke:none;fill-rule:nonzero;fill:rgb(90.588236%,29.803923%,23.529412%);fill-opacity:1;" d="M 43.480469 36.804688 C 43.125 35.007812 42.730469 32.945312 41.71875 31.386719 C 40.648438 29.757812 39.207031 28.386719 37.539062 27.355469 C 36.863281 26.925781 36.132812 26.550781 35.398438 26.230469 C 35.023438 26.082031 34.164062 25.59375 33.769531 25.855469 C 33.300781 26.15625 32.832031 26.042969 32.53125 25.742188 C 30.84375 27.320312 29.90625 30.261719 30 32.492188 C 30.09375 34.914062 31.085938 37.367188 32.792969 39.113281 C 34.460938 40.800781 36.449219 41.53125 38.773438 41.8125 C 40.539062 42.039062 42.695312 42.167969 44.382812 41.363281 C 44.023438 39.863281 43.800781 38.324219 43.480469 36.804688 Z M 43.480469 36.804688 "/>
<path style=" stroke:none;fill-rule:nonzero;fill:rgb(44.313726%,77.254903%,59.607846%);fill-opacity:1;" d="M 60.394531 9.335938 C 53.4375 5.511719 43.914062 5.476562 36.882812 9.1875 C 32.886719 11.304688 29.476562 14.71875 27.113281 18.542969 C 24.617188 22.59375 23.023438 27.28125 23.945312 32.0625 C 24.054688 32.625 23.71875 32.980469 23.289062 33.09375 C 23.230469 33.824219 23.15625 34.574219 23.230469 35.304688 C 23.324219 36.394531 23.511719 37.445312 23.867188 38.476562 C 24.5625 40.460938 25.632812 42.28125 26.960938 43.914062 C 29.8125 47.417969 33.507812 50.476562 37.238281 52.988281 C 40.726562 55.332031 45.132812 57.789062 49.460938 57.65625 C 53.269531 57.542969 56.773438 55.800781 59.699219 53.4375 C 66.355469 48.054688 70.914062 39.863281 70.800781 31.21875 C 70.6875 23.117188 67.949219 13.5 60.394531 9.335938 Z M 49.78125 44.960938 C 49.96875 45.601562 50.289062 46.179688 50.4375 46.835938 C 50.570312 47.382812 50.382812 47.960938 49.875 48.148438 C 49.445312 48.320312 48.84375 48.054688 48.730469 47.511719 C 48.582031 46.855469 48.261719 46.273438 48.074219 45.636719 C 47.699219 44.382812 49.40625 43.707031 49.78125 44.960938 Z M 46.800781 44.664062 C 47.230469 44.757812 47.664062 45.335938 47.511719 45.863281 L 47.023438 47.550781 C 46.875 48.074219 46.5 48.488281 45.976562 48.355469 C 45.542969 48.261719 45.113281 47.679688 45.261719 47.15625 L 45.75 45.46875 C 45.898438 44.945312 46.273438 44.53125 46.800781 44.664062 Z M 38.136719 43.820312 C 35.382812 43.386719 32.980469 42.414062 31.070312 40.273438 C 29.042969 38.007812 27.824219 34.949219 27.9375 31.894531 C 28.050781 28.949219 29.324219 25.648438 31.667969 23.773438 C 32.15625 23.382812 32.679688 23.570312 32.980469 23.945312 C 34.480469 23.304688 36.28125 24.335938 37.613281 25.011719 C 39.449219 25.96875 41.175781 27.355469 42.488281 28.949219 C 45.394531 32.511719 45.394531 37.257812 46.539062 41.511719 C 46.667969 41.960938 46.539062 42.429688 46.144531 42.710938 C 43.894531 44.269531 40.726562 44.210938 38.136719 43.820312 Z M 57.09375 50.511719 C 56.925781 52.988281 52.835938 53.960938 50.925781 54.261719 C 49.574219 54.46875 48.148438 54.335938 46.820312 54.09375 C 45.414062 53.832031 43.914062 53.417969 42.84375 52.425781 C 41.867188 51.523438 43.21875 49.96875 44.210938 50.867188 C 45.074219 51.675781 46.351562 51.9375 47.476562 52.105469 C 48.488281 52.257812 49.574219 52.386719 50.585938 52.238281 C 51.617188 52.085938 52.632812 51.789062 53.585938 51.355469 C 54.113281 51.132812 55.03125 50.738281 55.070312 50.136719 C 55.144531 48.804688 57.167969 49.21875 57.09375 50.511719 Z M 51.5625 42.335938 C 51.320312 42.320312 51.132812 42.226562 51 42.09375 C 50.476562 42.507812 49.40625 42.300781 49.21875 41.398438 C 48.113281 35.832031 49.613281 29.101562 53.960938 25.21875 C 56.0625 23.34375 59.664062 21.113281 62.4375 22.96875 C 64.648438 24.449219 65.230469 27.46875 65.195312 29.960938 C 65.15625 32.664062 64.613281 35.664062 62.945312 37.875 C 60.46875 41.195312 55.59375 42.730469 51.5625 42.335938 Z M 51.5625 42.335938 "/>
<path style=" stroke:none;fill-rule:nonzero;fill:rgb(90.588236%,29.803923%,23.529412%);fill-opacity:1;" d="M 61.105469 24.5625 C 60.09375 24.09375 58.742188 24.488281 57.730469 25.03125 C 55.929688 26.007812 54.394531 27.429688 53.324219 29.195312 C 51.261719 32.585938 50.550781 36.636719 51.167969 40.539062 C 51.375 40.367188 51.636719 40.273438 51.957031 40.292969 C 54.789062 40.574219 57.992188 39.582031 60.1875 37.761719 C 62.269531 36.039062 62.980469 33.28125 63.132812 30.675781 C 63.242188 28.78125 63.074219 25.460938 61.105469 24.5625 Z M 61.105469 24.5625 "/>
<path style=" stroke:none;fill-rule:nonzero;fill:rgb(44.313726%,77.254903%,59.607846%);fill-opacity:1;" d="M 78.074219 70.613281 C 77.570312 69.5625 76.855469 68.585938 76.460938 67.480469 C 76.011719 66.226562 75.9375 64.949219 76.050781 63.636719 C 76.164062 62.210938 76.257812 60.898438 76.050781 59.476562 C 75.882812 58.292969 75.65625 57.132812 75.335938 55.988281 C 74.71875 53.699219 73.894531 51.335938 72.320312 49.519531 C 71.585938 48.65625 70.667969 48.039062 69.65625 47.550781 C 69.167969 47.324219 68.644531 47.136719 68.289062 46.800781 C 66.617188 49.425781 64.613281 51.863281 62.304688 53.925781 C 59.101562 56.773438 55.238281 59.175781 50.886719 59.625 C 46.03125 60.132812 41.230469 57.957031 37.21875 55.386719 C 34.929688 53.925781 32.679688 52.292969 30.5625 50.476562 C 29.25 50.90625 28.03125 51.5625 27.054688 52.554688 C 24.335938 55.40625 23.738281 59.605469 23.457031 63.375 C 23.289062 65.492188 22.914062 67.539062 22.59375 69.65625 C 22.351562 71.363281 21.882812 74.101562 23.324219 75.429688 C 24.335938 76.367188 25.875 76.632812 27.1875 76.257812 C 28.179688 75.976562 29.492188 75.300781 29.289062 74.0625 C 29.136719 73.199219 28.40625 72.394531 27.898438 71.71875 C 27.320312 70.949219 26.679688 70.144531 26.417969 69.207031 C 25.726562 66.601562 26.8125 64.105469 27.335938 61.59375 C 27.617188 60.300781 29.644531 60.695312 29.363281 61.988281 C 28.855469 64.332031 27.355469 67.351562 28.875 69.582031 C 29.867188 71.042969 31.386719 72.488281 31.367188 74.382812 C 31.351562 75.882812 30.449219 76.988281 29.230469 77.664062 C 29.492188 79.707031 29.960938 81.710938 30.582031 83.679688 C 30.882812 84.675781 31.21875 85.6875 31.554688 86.664062 C 31.648438 86.925781 31.820312 87.226562 31.96875 87.523438 C 32.136719 87.617188 32.289062 87.789062 32.34375 88.011719 C 32.867188 88.40625 33.039062 89.230469 32.304688 89.625 C 31.445312 90.09375 28.855469 90.710938 29.679688 92.136719 C 30.601562 93.695312 32.550781 93.976562 34.21875 94.050781 C 36.019531 94.125 37.820312 94.144531 39.617188 94.21875 C 41.625 94.292969 43.855469 94.332031 45.730469 93.542969 C 46.292969 93.300781 47.25 92.886719 47.289062 92.175781 C 47.324219 91.648438 46.949219 91.011719 46.742188 90.542969 C 46.144531 89.25 45.488281 87.710938 46.179688 86.304688 C 47.792969 83.007812 52.914062 83.042969 55.59375 84.863281 C 57.039062 85.855469 57.824219 87.429688 57.636719 89.195312 C 57.5625 89.886719 57.335938 90.542969 57.226562 91.238281 C 57.148438 91.648438 57.09375 91.820312 57.488281 91.988281 C 58.59375 92.4375 60.039062 92.398438 61.21875 92.476562 C 62.664062 92.570312 64.125 92.570312 65.570312 92.476562 C 66.804688 92.398438 68.007812 92.210938 69.242188 92.230469 C 70.125 92.230469 71.023438 92.269531 71.925781 92.210938 C 73.554688 92.117188 75.449219 91.648438 75.789062 89.738281 C 75.992188 88.574219 74.382812 87.84375 73.613281 87.300781 C 72.394531 86.457031 71.175781 85.351562 71.042969 83.773438 C 70.800781 80.925781 71.398438 78.039062 70.707031 75.226562 C 70.632812 74.886719 70.6875 74.605469 70.835938 74.382812 C 70.460938 73.929688 70.164062 73.40625 69.9375 72.863281 C 69.074219 70.742188 69.898438 68.644531 70.238281 66.488281 C 70.6875 63.65625 69.507812 61.011719 68.269531 58.539062 C 67.667969 57.335938 69.636719 56.679688 70.21875 57.863281 C 70.96875 59.363281 71.71875 60.917969 72.074219 62.570312 C 72.355469 63.898438 72.523438 65.25 72.320312 66.601562 C 72.132812 67.800781 71.757812 68.980469 71.644531 70.179688 C 71.492188 71.792969 72.1875 73.125 73.519531 74.023438 C 74.511719 74.699219 75.9375 75.132812 77.101562 74.644531 C 78.65625 73.949219 78.75 72 78.074219 70.613281 Z M 78.074219 70.613281 "/>
<path style=" stroke:none;fill-rule:nonzero;fill:rgb(0.392157%,0.392157%,0.392157%);fill-opacity:1;" d="M 46.554688 41.550781 C 45.414062 37.292969 45.429688 32.550781 42.507812 28.988281 C 41.195312 27.375 39.46875 25.988281 37.632812 25.050781 C 36.320312 24.375 34.5 23.324219 33 23.980469 C 32.699219 23.585938 32.195312 23.417969 31.6875 23.8125 C 29.34375 25.667969 28.070312 28.988281 27.957031 31.929688 C 27.824219 34.988281 29.0625 38.042969 31.085938 40.3125 C 32.980469 42.429688 35.382812 43.40625 38.15625 43.855469 C 40.742188 44.269531 43.914062 44.304688 46.164062 42.789062 C 46.554688 42.46875 46.667969 42 46.554688 41.550781 Z M 38.792969 41.832031 C 36.46875 41.53125 34.460938 40.820312 32.8125 39.132812 C 31.105469 37.386719 30.113281 34.929688 30.019531 32.511719 C 29.925781 30.28125 30.863281 27.355469 32.550781 25.761719 C 32.867188 26.0625 33.335938 26.175781 33.789062 25.875 C 34.179688 25.613281 35.0625 26.101562 35.417969 26.25 C 36.148438 26.570312 36.882812 26.945312 37.554688 27.375 C 39.207031 28.40625 40.667969 29.773438 41.738281 31.40625 C 42.75 32.960938 43.144531 35.023438 43.5 36.824219 C 43.800781 38.34375 44.042969 39.882812 44.398438 41.382812 C 42.710938 42.167969 40.554688 42.054688 38.792969 41.832031 Z M 62.457031 22.96875 C 59.664062 21.113281 56.082031 23.34375 53.980469 25.21875 C 49.632812 29.117188 48.148438 35.851562 49.238281 41.398438 C 49.40625 42.300781 50.476562 42.507812 51.019531 42.09375 C 51.148438 42.226562 51.335938 42.300781 51.582031 42.335938 C 55.59375 42.730469 60.46875 41.195312 62.980469 37.875 C 64.648438 35.664062 65.175781 32.664062 65.230469 29.960938 C 65.25 27.46875 64.667969 24.429688 62.457031 22.96875 Z M 63.132812 30.695312 C 62.980469 33.300781 62.269531 36.054688 60.1875 37.78125 C 57.992188 39.601562 54.789062 40.59375 51.957031 40.3125 C 51.636719 40.273438 51.375 40.386719 51.167969 40.554688 C 50.550781 36.65625 51.261719 32.605469 53.324219 29.210938 C 54.394531 27.449219 55.929688 26.023438 57.730469 25.050781 C 58.742188 24.507812 60.074219 24.113281 61.105469 24.582031 C 63.074219 25.460938 63.242188 28.78125 63.132812 30.695312 Z M 46.800781 44.664062 C 46.273438 44.550781 45.898438 44.945312 45.75 45.46875 L 45.261719 47.15625 C 45.113281 47.699219 45.542969 48.261719 45.976562 48.355469 C 46.5 48.46875 46.875 48.074219 47.023438 47.550781 L 47.511719 45.863281 C 47.679688 45.335938 47.25 44.757812 46.800781 44.664062 Z M 50.4375 46.835938 C 50.289062 46.179688 49.96875 45.601562 49.78125 44.960938 C 49.386719 43.707031 47.679688 44.382812 48.074219 45.636719 C 48.261719 46.273438 48.582031 46.855469 48.730469 47.511719 C 48.863281 48.054688 49.445312 48.320312 49.875 48.148438 C 50.382812 47.945312 50.570312 47.363281 50.4375 46.835938 Z M 50.4375 46.835938 "/>
<path style=" stroke:none;fill-rule:nonzero;fill:rgb(0.392157%,0.392157%,0.392157%);fill-opacity:1;" d="M 78.601562 67.273438 C 77.980469 66.019531 78 64.6875 78.113281 63.320312 C 78.242188 61.929688 78.28125 60.675781 78.074219 59.304688 C 77.71875 56.886719 77.136719 54.46875 76.21875 52.199219 C 75.5625 50.570312 74.664062 49.070312 73.460938 47.757812 C 72.882812 47.136719 72.1875 46.632812 71.476562 46.199219 C 71.101562 45.976562 70.6875 45.769531 70.292969 45.582031 C 70.105469 45.507812 69.9375 45.429688 69.789062 45.320312 C 69.75 45.300781 69.710938 45.28125 69.675781 45.261719 C 69.582031 45.132812 69.46875 45.039062 69.335938 44.960938 C 69.636719 44.398438 69.9375 43.835938 70.21875 43.273438 C 72.039062 39.507812 72.824219 35.492188 72.84375 31.332031 C 72.882812 23.15625 70.085938 13.574219 63.132812 8.644531 C 56.417969 3.882812 47.082031 3.394531 39.429688 5.886719 C 30.976562 8.664062 24 16.6875 22.011719 25.3125 C 21.582031 27.167969 21.46875 29.117188 21.675781 31.03125 C 21.449219 31.21875 21.300781 31.480469 21.28125 31.835938 C 21.261719 33.039062 21.054688 34.238281 21.132812 35.457031 C 21.207031 36.710938 21.507812 37.96875 21.882812 39.148438 C 22.613281 41.398438 23.90625 43.460938 25.40625 45.28125 C 26.4375 46.554688 27.582031 47.773438 28.800781 48.9375 C 25.59375 50.363281 23.570312 53.175781 22.480469 56.605469 C 21.882812 58.519531 21.601562 60.523438 21.429688 62.511719 C 21.242188 64.613281 20.960938 66.636719 20.625 68.71875 C 20.269531 70.835938 20.007812 73.125 20.757812 75.167969 C 21.355469 76.820312 22.820312 77.867188 24.46875 78.300781 C 25.292969 78.507812 26.269531 78.523438 27.207031 78.355469 C 27.449219 80.042969 27.824219 81.695312 28.292969 83.324219 C 28.574219 84.335938 28.894531 85.351562 29.230469 86.34375 C 29.382812 86.773438 29.53125 87.207031 29.679688 87.636719 C 29.738281 87.804688 29.945312 88.105469 30.09375 88.386719 C 29.007812 88.894531 27.917969 89.4375 27.523438 90.695312 C 26.960938 92.53125 28.445312 94.3125 29.945312 95.136719 C 31.59375 96.039062 33.65625 96.074219 35.492188 96.09375 C 37.351562 96.113281 39.1875 96.242188 41.023438 96.261719 C 44.0625 96.28125 50.25 95.492188 49.164062 91.085938 C 48.863281 89.851562 47.679688 88.574219 47.980469 87.226562 C 48.320312 85.726562 50.925781 85.554688 52.070312 85.6875 C 53.550781 85.855469 55.40625 86.664062 55.574219 88.351562 C 55.707031 89.679688 54.84375 90.917969 55.179688 92.25 C 55.648438 94.179688 58.164062 94.21875 59.738281 94.367188 C 62.644531 94.648438 65.457031 94.425781 68.34375 94.257812 C 70.179688 94.144531 72.019531 94.40625 73.835938 93.992188 C 75.730469 93.542969 77.101562 92.304688 77.679688 90.449219 C 78.148438 88.949219 77.476562 87.65625 76.332031 86.71875 C 75.355469 85.914062 73.820312 85.3125 73.238281 84.148438 C 73.011719 83.699219 73.03125 83.230469 73.011719 82.742188 C 72.976562 81.824219 73.011719 80.90625 73.050781 79.988281 C 73.085938 78.675781 73.070312 77.382812 72.898438 76.085938 C 74.289062 76.820312 75.917969 77.082031 77.417969 76.6875 C 78.992188 76.273438 79.949219 74.90625 80.417969 73.445312 C 81.132812 71.15625 79.539062 69.1875 78.601562 67.273438 Z M 26.945312 43.914062 C 25.613281 42.28125 24.523438 40.460938 23.851562 38.476562 C 23.492188 37.445312 23.304688 36.375 23.210938 35.304688 C 23.15625 34.574219 23.210938 33.824219 23.269531 33.09375 C 23.699219 32.980469 24.039062 32.644531 23.925781 32.0625 C 23.023438 27.28125 24.601562 22.59375 27.09375 18.542969 C 29.457031 14.71875 32.886719 11.304688 36.863281 9.1875 C 43.894531 5.457031 53.417969 5.492188 60.375 9.335938 C 67.949219 13.5 70.667969 23.117188 70.78125 31.21875 C 70.894531 39.863281 66.335938 48.054688 59.679688 53.4375 C 56.757812 55.800781 53.25 57.542969 49.445312 57.65625 C 45.113281 57.789062 40.707031 55.332031 37.21875 52.988281 C 33.488281 50.457031 29.792969 47.417969 26.945312 43.914062 Z M 77.023438 74.644531 C 75.882812 75.132812 74.4375 74.699219 73.445312 74.023438 C 72.113281 73.125 71.417969 71.792969 71.570312 70.179688 C 71.679688 68.960938 72.054688 67.800781 72.242188 66.601562 C 72.449219 65.25 72.300781 63.898438 72 62.570312 C 71.644531 60.917969 70.894531 59.363281 70.144531 57.863281 C 69.5625 56.679688 67.613281 57.355469 68.195312 58.539062 C 69.429688 61.011719 70.59375 63.65625 70.164062 66.488281 C 69.824219 68.625 69 70.726562 69.863281 72.863281 C 70.085938 73.40625 70.386719 73.914062 70.761719 74.382812 C 70.613281 74.605469 70.539062 74.90625 70.632812 75.226562 C 71.324219 78.039062 70.726562 80.925781 70.96875 83.773438 C 71.101562 85.351562 72.320312 86.4375 73.539062 87.300781 C 74.324219 87.84375 75.917969 88.574219 75.710938 89.738281 C 75.375 91.632812 73.480469 92.101562 71.851562 92.210938 C 70.96875 92.269531 70.070312 92.230469 69.167969 92.230469 C 67.929688 92.210938 66.710938 92.398438 65.492188 92.476562 C 64.050781 92.570312 62.585938 92.550781 61.144531 92.476562 C 59.980469 92.398438 58.519531 92.4375 57.414062 91.988281 C 57.019531 91.820312 57.074219 91.648438 57.148438 91.238281 C 57.261719 90.542969 57.488281 89.886719 57.5625 89.195312 C 57.769531 87.429688 56.980469 85.855469 55.519531 84.863281 C 52.855469 83.042969 47.738281 83.007812 46.105469 86.304688 C 45.414062 87.710938 46.070312 89.25 46.667969 90.542969 C 46.875 91.011719 47.25 91.648438 47.210938 92.175781 C 47.175781 92.886719 46.21875 93.300781 45.65625 93.542969 C 43.78125 94.351562 41.53125 94.292969 39.542969 94.21875 C 37.742188 94.164062 35.945312 94.125 34.144531 94.050781 C 32.476562 93.976562 30.523438 93.710938 29.605469 92.136719 C 28.761719 90.710938 31.351562 90.09375 32.230469 89.625 C 32.960938 89.230469 32.773438 88.425781 32.269531 88.011719 C 32.210938 87.789062 32.0625 87.617188 31.894531 87.523438 C 31.726562 87.226562 31.554688 86.925781 31.480469 86.664062 C 31.144531 85.667969 30.804688 84.675781 30.507812 83.679688 C 29.90625 81.710938 29.417969 79.707031 29.15625 77.664062 C 30.375 76.988281 31.273438 75.882812 31.292969 74.382812 C 31.332031 72.488281 29.792969 71.023438 28.800781 69.582031 C 27.28125 67.351562 28.800781 64.332031 29.289062 61.988281 C 29.570312 60.695312 27.542969 60.300781 27.261719 61.59375 C 26.738281 64.105469 25.632812 66.617188 26.34375 69.207031 C 26.605469 70.144531 27.242188 70.96875 27.824219 71.71875 C 28.332031 72.394531 29.0625 73.199219 29.210938 74.0625 C 29.417969 75.300781 28.105469 75.976562 27.113281 76.257812 C 25.800781 76.632812 24.261719 76.367188 23.25 75.429688 C 21.804688 74.101562 22.273438 71.363281 22.519531 69.65625 C 22.820312 67.554688 23.210938 65.492188 23.382812 63.375 C 23.664062 59.605469 24.261719 55.40625 26.980469 52.554688 C 27.9375 51.542969 29.175781 50.90625 30.488281 50.476562 C 32.585938 52.292969 34.855469 53.925781 37.144531 55.386719 C 41.15625 57.957031 45.957031 60.132812 50.8125 59.625 C 55.164062 59.175781 59.042969 56.773438 62.230469 53.925781 C 64.539062 51.882812 66.542969 49.445312 68.210938 46.800781 C 68.570312 47.136719 69.09375 47.304688 69.582031 47.550781 C 70.59375 48.039062 71.511719 48.65625 72.242188 49.519531 C 73.820312 51.335938 74.644531 53.699219 75.261719 55.988281 C 75.582031 57.132812 75.789062 58.292969 75.976562 59.476562 C 76.199219 60.898438 76.105469 62.210938 75.976562 63.636719 C 75.863281 64.949219 75.9375 66.226562 76.386719 67.480469 C 76.78125 68.585938 77.492188 69.5625 78 70.613281 C 78.75 72 78.65625 73.949219 77.023438 74.644531 Z M 77.023438 74.644531 "/>
<path style=" stroke:none;fill-rule:nonzero;fill:rgb(0.392157%,0.392157%,0.392157%);fill-opacity:1;" d="M 55.070312 50.117188 C 55.03125 50.738281 54.09375 51.113281 53.585938 51.335938 C 52.648438 51.769531 51.617188 52.070312 50.585938 52.21875 C 49.554688 52.367188 48.488281 52.238281 47.476562 52.085938 C 46.351562 51.917969 45.074219 51.636719 44.210938 50.851562 C 43.238281 49.949219 41.886719 51.488281 42.84375 52.40625 C 43.914062 53.398438 45.414062 53.8125 46.820312 54.074219 C 48.148438 54.320312 49.59375 54.449219 50.925781 54.242188 C 52.835938 53.960938 56.925781 52.96875 57.09375 50.492188 C 57.167969 49.21875 55.144531 48.804688 55.070312 50.117188 Z M 55.070312 50.117188 "/>
</g>
</svg>
