<svg xmlns="http://www.w3.org/2000/svg"  viewBox="0 0 80 80" width="30px" height="30px"><path fill="#8b75a1" d="M57.5 22h-1c0-13.1 11.1-13.6 11.2-13.6l0 1C67.4 9.4 57.5 9.9 57.5 22zM23.5 21.9h-1C22.5 9.8 12.5 9.4 12 9.4l0-1C12.2 8.4 23.5 8.8 23.5 21.9z"/><path fill="#dcd5f2" d="M40,75.5c-21,0-33.5-9.6-33.5-25.6c0-18.5,16-35.4,33.5-35.4s33.5,16.9,33.5,35.4 C73.5,65.9,61,75.5,40,75.5z"/><path fill="#8b75a1" d="M40,15c17.3,0,33,16.6,33,34.9c0,8.2-3.2,14.6-9.6,19C57.6,72.9,49.5,75,40,75s-17.6-2.1-23.4-6.1 C10.2,64.5,7,58.1,7,49.9C7,31.6,22.7,15,40,15 M40,14C21.3,14,6,32,6,49.9S21.3,76,40,76s34-8.1,34-26.1S58.7,14,40,14L40,14z"/><path fill="#dcd5f2" d="M9,13.5c-2.5,0-4.5-2-4.5-4.5s2-4.5,4.5-4.5s4.5,2,4.5,4.5S11.5,13.5,9,13.5z"/><path fill="#8b75a1" d="M9,5c2.2,0,4,1.8,4,4s-1.8,4-4,4s-4-1.8-4-4S6.8,5,9,5 M9,4C6.2,4,4,6.2,4,9s2.2,5,5,5s5-2.2,5-5 S11.8,4,9,4L9,4z"/><path fill="#fff" d="M40,58.5c-9.3,0-16.5-7.2-16.5-16.5S30.7,25.5,40,25.5S56.5,32.7,56.5,42S49.3,58.5,40,58.5z"/><path fill="#8b75a1" d="M40,26c9,0,16,7,16,16s-7,16-16,16s-16-7-16-16S31,26,40,26 M40,25c-9.5,0-17,7.5-17,17 s7.5,17,17,17s17-7.5,17-17S49.5,25,40,25L40,25z"/><path fill="#839cb2" d="M40,49.5c-4.1,0-7.5-3.4-7.5-7.5s3.4-7.5,7.5-7.5s7.5,3.4,7.5,7.5S44.1,49.5,40,49.5z"/><path fill="#66798f" d="M40,35c3.9,0,7,3.1,7,7s-3.1,7-7,7s-7-3.1-7-7S36.1,35,40,35 M40,34c-4.4,0-8,3.6-8,8s3.6,8,8,8 s8-3.6,8-8S44.4,34,40,34L40,34z"/><path fill="#fff" d="M44 34A4 4 0 1 0 44 42A4 4 0 1 0 44 34Z"/><g><path fill="#dcd5f2" d="M71,13.5c-2.5,0-4.5-2-4.5-4.5s2-4.5,4.5-4.5s4.5,2,4.5,4.5S73.5,13.5,71,13.5z"/><path fill="#8b75a1" d="M71,5c2.2,0,4,1.8,4,4s-1.8,4-4,4s-4-1.8-4-4S68.8,5,71,5 M71,4c-2.8,0-5,2.2-5,5s2.2,5,5,5 s5-2.2,5-5S73.8,4,71,4L71,4z"/></g><path fill="#8b75a1" d="M40,68c-8.3,0-12.9-2.6-13-2.6l0.5-0.9c0,0,4.5,2.5,12.5,2.5c7.6,0,12-2.5,12.5-2.8l0.5,0.9 C52.5,65.4,47.8,68,40,68z"/></svg>