<?xml version="1.0" standalone="no"?>
<!DOCTYPE svg PUBLIC "-//W3C//DTD SVG 20010904//EN"
 "http://www.w3.org/TR/2001/REC-SVG-20010904/DTD/svg10.dtd">
<svg version="1.0" xmlns="http://www.w3.org/2000/svg"
 width="400.000000pt" height="500.000000pt" viewBox="0 0 400.000000 500.000000"
 preserveAspectRatio="xMidYMid meet">

<g transform="translate(0.000000,500.000000) scale(0.100000,-0.100000)"
fill="#000000" stroke="none">
<path d="M1928 4663 c7 -3 16 -2 19 1 4 3 -2 6 -13 5 -11 0 -14 -3 -6 -6z"/>
<path d="M2091 4656 c8 -8 88 -10 95 -3 4 4 -17 7 -46 7 -29 0 -51 -2 -49 -4z"/>
<path d="M2208 4653 c7 -3 16 -2 19 1 4 3 -2 6 -13 5 -11 0 -14 -3 -6 -6z"/>
<path d="M2240 4654 c0 -5 40 -21 78 -30 15 -4 24 -4 20 0 -8 9 -98 37 -98 30z"/>
<path d="M1645 4605 c-22 -13 -35 -24 -30 -24 6 0 28 11 50 24 22 14 36 25 30
25 -5 0 -28 -11 -50 -25z"/>
<path d="M1795 4600 c-85 -20 -97 -25 -159 -67 -26 -18 -57 -33 -67 -33 -29 0
-71 -22 -112 -60 -21 -19 -46 -39 -55 -44 -10 -4 -86 -79 -170 -165 -103 -105
-162 -173 -179 -207 -13 -28 -40 -68 -58 -89 -19 -20 -37 -52 -41 -69 -4 -17
-17 -47 -30 -66 -13 -19 -24 -43 -24 -52 0 -20 -30 -101 -41 -108 -9 -7 -39
-97 -39 -119 0 -10 -11 -38 -24 -63 -13 -24 -29 -68 -35 -97 -6 -28 -20 -69
-31 -91 -11 -22 -20 -56 -20 -77 0 -21 -7 -49 -16 -61 -12 -17 -14 -35 -10
-65 3 -23 1 -58 -5 -77 -6 -19 -13 -87 -15 -150 -3 -63 -10 -131 -17 -150 -8
-23 -11 -93 -10 -202 1 -97 -3 -168 -8 -168 -5 0 -9 10 -9 22 0 12 -3 19 -6
16 -3 -4 -2 -44 2 -90 7 -66 9 -76 14 -48 l6 35 11 -40 c6 -22 14 -80 17 -130
8 -138 16 -204 32 -273 9 -35 13 -71 9 -79 -5 -16 78 -313 97 -343 6 -10 7 -7
2 10 -3 14 -3 22 2 17 4 -4 9 -28 10 -53 2 -31 20 -80 56 -152 29 -59 55 -109
58 -112 6 -6 42 -60 50 -75 16 -32 126 -191 137 -198 7 -4 13 -13 13 -20 0
-20 165 -202 229 -254 102 -82 238 -139 528 -224 55 -16 253 -6 313 16 62 22
186 72 237 96 24 10 46 19 50 19 6 0 30 14 121 75 52 35 166 148 237 234 33
41 68 81 78 90 9 8 17 21 17 28 0 7 5 13 10 13 6 0 10 5 10 11 0 7 15 33 34
59 18 26 37 56 40 67 10 31 117 247 126 253 4 3 13 23 20 45 7 22 27 72 45
110 38 82 61 171 109 425 19 102 40 214 47 250 8 43 12 150 10 320 -4 436 -4
443 -61 696 -29 126 -56 249 -60 274 -9 47 -67 218 -80 235 -4 6 -22 44 -40
85 -82 189 -231 452 -247 436 -4 -3 3 -16 15 -29 12 -13 22 -27 22 -33 0 -10
-34 29 -51 60 -8 13 -8 17 0 12 6 -4 11 -3 11 1 0 18 -141 147 -160 148 -20 0
-184 134 -175 143 2 2 35 -19 72 -48 37 -30 59 -44 49 -32 -10 12 -55 50 -100
84 -45 34 -72 52 -62 40 20 -23 7 -31 -16 -9 -29 27 -169 89 -233 102 -94 20
-386 17 -480 -5z m976 -297 c13 -16 12 -17 -3 -4 -17 13 -22 21 -14 21 2 0 10
-8 17 -17z m89 -96 c0 -5 -16 6 -35 24 -19 19 -35 38 -35 43 0 6 16 -5 35 -24
19 -19 35 -38 35 -43z m-2071 -2727 c0 -9 -4 -8 -9 5 -5 11 -9 27 -9 35 0 9 4
8 9 -5 5 -11 9 -27 9 -35z"/>
<path d="M2390 4594 c25 -14 61 -35 80 -46 l35 -20 -25 21 c-26 23 -114 71
-127 71 -4 0 12 -12 37 -26z"/>
<path d="M1459 4509 l-24 -20 28 17 c15 9 27 18 27 20 0 8 -8 4 -31 -17z"/>
<path d="M1284 4368 l-29 -33 33 29 c17 17 32 31 32 33 0 8 -8 1 -36 -29z"/>
<path d="M1159 4243 l-24 -28 28 24 c25 23 32 31 24 31 -2 0 -14 -12 -28 -27z"/>
<path d="M801 3599 c-6 -18 -9 -34 -7 -36 2 -2 9 10 15 28 6 18 9 34 7 36 -2
2 -9 -10 -15 -28z"/>
<path d="M742 3425 c-17 -37 -14 -45 4 -12 9 16 14 31 11 33 -2 2 -9 -7 -15
-21z"/>
<path d="M680 3230 c-7 -28 -10 -53 -8 -55 3 -3 10 18 16 47 7 28 11 53 8 55
-2 2 -9 -19 -16 -47z"/>
<path d="M662 3115 c0 -16 2 -22 5 -12 2 9 2 23 0 30 -3 6 -5 -1 -5 -18z"/>
<path d="M651 3054 c0 -11 3 -14 6 -6 3 7 2 16 -1 19 -3 4 -6 -2 -5 -13z"/>
<path d="M630 2885 c-7 -64 -10 -118 -8 -120 3 -3 11 47 18 110 7 63 11 118 8
120 -3 3 -11 -46 -18 -110z"/>
<path d="M603 2565 c0 -44 2 -61 4 -37 2 23 2 59 0 80 -2 20 -4 1 -4 -43z"/>
<path d="M633 2120 c0 -30 2 -43 4 -27 2 15 2 39 0 55 -2 15 -4 2 -4 -28z"/>
<path d="M652 1910 c0 -24 25 -115 27 -95 0 6 -6 35 -14 65 -7 30 -13 44 -13
30z"/>
<path d="M681 1784 c0 -11 3 -14 6 -6 3 7 2 16 -1 19 -3 4 -6 -2 -5 -13z"/>
</g>
</svg>
