<?xml version="1.0" encoding="UTF-8"?>
<svg xmlns="http://www.w3.org/2000/svg" xmlns:xlink="http://www.w3.org/1999/xlink" viewBox="0 0 480 480" width="480px" height="480px">
<g id="surface26210339">
<path style=" stroke:none;fill-rule:nonzero;fill:rgb(90.588236%,29.803923%,23.529412%);fill-opacity:1;" d="M 217.40625 184.03125 C 215.625 175.03125 213.65625 164.71875 208.59375 156.9375 C 203.25 148.78125 196.03125 141.9375 187.6875 136.78125 C 184.3125 134.625 180.65625 132.75 177 131.15625 C 175.125 130.40625 170.8125 127.96875 168.84375 129.28125 C 166.5 130.78125 164.15625 130.21875 162.65625 128.71875 C 154.21875 136.59375 149.53125 151.3125 150 162.46875 C 150.46875 174.5625 155.4375 186.84375 163.96875 195.5625 C 172.3125 204 182.25 207.65625 193.875 209.0625 C 202.6875 210.1875 213.46875 210.84375 221.90625 206.8125 C 220.125 199.3125 219 191.625 217.40625 184.03125 Z M 217.40625 184.03125 "/>
<path style=" stroke:none;fill-rule:nonzero;fill:rgb(44.313726%,77.254903%,59.607846%);fill-opacity:1;" d="M 301.96875 46.6875 C 267.1875 27.5625 219.5625 27.375 184.40625 45.9375 C 164.4375 56.53125 147.375 73.59375 135.5625 92.71875 C 123.09375 112.96875 115.125 136.40625 119.71875 160.3125 C 120.28125 163.125 118.59375 164.90625 116.4375 165.46875 C 116.15625 169.125 115.78125 172.875 116.15625 176.53125 C 116.625 181.96875 117.5625 187.21875 119.34375 192.375 C 122.8125 202.3125 128.15625 211.40625 134.8125 219.5625 C 149.0625 237.09375 167.53125 252.375 186.1875 264.9375 C 203.625 276.65625 225.65625 288.9375 247.3125 288.28125 C 266.34375 287.71875 283.875 279 298.5 267.1875 C 331.78125 240.28125 354.5625 199.3125 354 156.09375 C 353.4375 115.59375 339.75 67.5 301.96875 46.6875 Z M 248.90625 224.8125 C 249.84375 228 251.4375 230.90625 252.1875 234.1875 C 252.84375 236.90625 251.90625 239.8125 249.375 240.75 C 247.21875 241.59375 244.21875 240.28125 243.65625 237.5625 C 242.90625 234.28125 241.3125 231.375 240.375 228.1875 C 238.5 221.90625 247.03125 218.53125 248.90625 224.8125 Z M 234 223.3125 C 236.15625 223.78125 238.3125 226.6875 237.5625 229.3125 L 235.125 237.75 C 234.375 240.375 232.5 242.4375 229.875 241.78125 C 227.71875 241.3125 225.5625 238.40625 226.3125 235.78125 L 228.75 227.34375 C 229.5 224.71875 231.375 222.65625 234 223.3125 Z M 190.6875 219.09375 C 176.90625 216.9375 164.90625 212.0625 155.34375 201.375 C 145.21875 190.03125 139.125 174.75 139.6875 159.46875 C 140.25 144.75 146.625 128.25 158.34375 118.875 C 160.78125 116.90625 163.40625 117.84375 164.90625 119.71875 C 172.40625 116.53125 181.40625 121.6875 188.0625 125.0625 C 197.25 129.84375 205.875 136.78125 212.4375 144.75 C 226.96875 162.5625 226.96875 186.28125 232.6875 207.5625 C 233.34375 209.8125 232.6875 212.15625 230.71875 213.5625 C 219.46875 221.34375 203.625 221.0625 190.6875 219.09375 Z M 285.46875 252.5625 C 284.625 264.9375 264.1875 269.8125 254.625 271.3125 C 247.875 272.34375 240.75 271.6875 234.09375 270.46875 C 227.0625 269.15625 219.5625 267.09375 214.21875 262.125 C 209.34375 257.625 216.09375 249.84375 221.0625 254.34375 C 225.375 258.375 231.75 259.6875 237.375 260.53125 C 242.4375 261.28125 247.875 261.9375 252.9375 261.1875 C 258.09375 260.4375 263.15625 258.9375 267.9375 256.78125 C 270.5625 255.65625 275.15625 253.6875 275.34375 250.6875 C 275.71875 244.03125 285.84375 246.09375 285.46875 252.5625 Z M 257.8125 211.6875 C 256.59375 211.59375 255.65625 211.125 255 210.46875 C 252.375 212.53125 247.03125 211.5 246.09375 207 C 240.5625 179.15625 248.0625 145.5 269.8125 126.09375 C 280.3125 116.71875 298.3125 105.5625 312.1875 114.84375 C 323.25 122.25 326.15625 137.34375 325.96875 149.8125 C 325.78125 163.3125 323.0625 178.3125 314.71875 189.375 C 302.34375 205.96875 277.96875 213.65625 257.8125 211.6875 Z M 257.8125 211.6875 "/>
<path style=" stroke:none;fill-rule:nonzero;fill:rgb(90.588236%,29.803923%,23.529412%);fill-opacity:1;" d="M 305.53125 122.8125 C 300.46875 120.46875 293.71875 122.4375 288.65625 125.15625 C 279.65625 130.03125 271.96875 137.15625 266.625 145.96875 C 256.3125 162.9375 252.75 183.1875 255.84375 202.6875 C 256.875 201.84375 258.1875 201.375 259.78125 201.46875 C 273.9375 202.875 289.96875 197.90625 300.9375 188.8125 C 311.34375 180.1875 314.90625 166.40625 315.65625 153.375 C 316.21875 143.90625 315.375 127.3125 305.53125 122.8125 Z M 305.53125 122.8125 "/>
<path style=" stroke:none;fill-rule:nonzero;fill:rgb(44.313726%,77.254903%,59.607846%);fill-opacity:1;" d="M 390.375 353.0625 C 387.84375 347.8125 384.28125 342.9375 382.3125 337.40625 C 380.0625 331.125 379.6875 324.75 380.25 318.1875 C 380.8125 311.0625 381.28125 304.5 380.25 297.375 C 379.40625 291.46875 378.28125 285.65625 376.6875 279.9375 C 373.59375 268.5 369.46875 256.6875 361.59375 247.59375 C 357.9375 243.28125 353.34375 240.1875 348.28125 237.75 C 345.84375 236.625 343.21875 235.6875 341.4375 234 C 333.09375 247.125 323.0625 259.3125 311.53125 269.625 C 295.5 283.875 276.1875 295.875 254.4375 298.125 C 230.15625 300.65625 206.15625 289.78125 186.09375 276.9375 C 174.65625 269.625 163.40625 261.46875 152.8125 252.375 C 146.25 254.53125 140.15625 257.8125 135.28125 262.78125 C 121.6875 277.03125 118.6875 298.03125 117.28125 316.875 C 116.4375 327.46875 114.5625 337.6875 112.96875 348.28125 C 111.75 356.8125 109.40625 370.5 116.625 377.15625 C 121.6875 381.84375 129.375 383.15625 135.9375 381.28125 C 140.90625 379.875 147.46875 376.5 146.4375 370.3125 C 145.6875 366 142.03125 361.96875 139.5 358.59375 C 136.59375 354.75 133.40625 350.71875 132.09375 346.03125 C 128.625 333 134.0625 320.53125 136.6875 307.96875 C 138.09375 301.5 148.21875 303.46875 146.8125 309.9375 C 144.28125 321.65625 136.78125 336.75 144.375 347.90625 C 149.34375 355.21875 156.9375 362.4375 156.84375 371.90625 C 156.75 379.40625 152.25 384.9375 146.15625 388.3125 C 147.46875 398.53125 149.8125 408.5625 152.90625 418.40625 C 154.40625 423.375 156.09375 428.4375 157.78125 433.3125 C 158.25 434.625 159.09375 436.125 159.84375 437.625 C 160.6875 438.09375 161.4375 438.9375 161.71875 440.0625 C 164.34375 442.03125 165.1875 446.15625 161.53125 448.125 C 157.21875 450.46875 144.28125 453.5625 148.40625 460.6875 C 153 468.46875 162.75 469.875 171.09375 470.25 C 180.09375 470.625 189.09375 470.71875 198.09375 471.09375 C 208.125 471.46875 219.28125 471.65625 228.65625 467.71875 C 231.46875 466.5 236.25 464.4375 236.4375 460.875 C 236.625 458.25 234.75 455.0625 233.71875 452.71875 C 230.71875 446.25 227.4375 438.5625 230.90625 431.53125 C 238.96875 415.03125 264.5625 415.21875 277.96875 424.3125 C 285.1875 429.28125 289.125 437.15625 288.1875 445.96875 C 287.8125 449.4375 286.6875 452.71875 286.125 456.1875 C 285.75 458.25 285.46875 459.09375 287.4375 459.9375 C 292.96875 462.1875 300.1875 462 306.09375 462.375 C 313.3125 462.84375 320.625 462.84375 327.84375 462.375 C 334.03125 462 340.03125 461.0625 346.21875 461.15625 C 350.625 461.15625 355.125 461.34375 359.625 461.0625 C 367.78125 460.59375 377.25 458.25 378.9375 448.6875 C 379.96875 442.875 371.90625 439.21875 368.0625 436.5 C 361.96875 432.28125 355.875 426.75 355.21875 418.875 C 354 404.625 357 390.1875 353.53125 376.125 C 353.15625 374.4375 353.4375 373.03125 354.1875 371.90625 C 352.3125 369.65625 350.8125 367.03125 349.6875 364.3125 C 345.375 353.71875 349.5 343.21875 351.1875 332.4375 C 353.4375 318.28125 347.53125 305.0625 341.34375 292.6875 C 338.34375 286.6875 348.1875 283.40625 351.09375 289.3125 C 354.84375 296.8125 358.59375 304.59375 360.375 312.84375 C 361.78125 319.5 362.625 326.25 361.59375 333 C 360.65625 339 358.78125 344.90625 358.21875 350.90625 C 357.46875 358.96875 360.9375 365.625 367.59375 370.125 C 372.5625 373.5 379.6875 375.65625 385.5 373.21875 C 393.28125 369.75 393.75 360 390.375 353.0625 Z M 390.375 353.0625 "/>
<path style=" stroke:none;fill-rule:nonzero;fill:rgb(0.392157%,0.392157%,0.392157%);fill-opacity:1;" d="M 232.78125 207.75 C 227.0625 186.46875 227.15625 162.75 212.53125 144.9375 C 205.96875 136.875 197.34375 129.9375 188.15625 125.25 C 181.59375 121.875 172.5 116.625 165 119.90625 C 163.5 117.9375 160.96875 117.09375 158.4375 119.0625 C 146.71875 128.34375 140.34375 144.9375 139.78125 159.65625 C 139.125 174.9375 145.3125 190.21875 155.4375 201.5625 C 164.90625 212.15625 176.90625 217.03125 190.78125 219.28125 C 203.71875 221.34375 219.5625 221.53125 230.8125 213.9375 C 232.78125 212.34375 233.34375 210 232.78125 207.75 Z M 193.96875 209.15625 C 182.34375 207.65625 172.3125 204.09375 164.0625 195.65625 C 155.53125 186.9375 150.5625 174.65625 150.09375 162.5625 C 149.625 151.40625 154.3125 136.78125 162.75 128.8125 C 164.34375 130.3125 166.6875 130.875 168.9375 129.375 C 170.90625 128.0625 175.3125 130.5 177.09375 131.25 C 180.75 132.84375 184.40625 134.71875 187.78125 136.875 C 196.03125 142.03125 203.34375 148.875 208.6875 157.03125 C 213.75 164.8125 215.71875 175.125 217.5 184.125 C 219 191.71875 220.21875 199.40625 222 206.90625 C 213.5625 210.84375 202.78125 210.28125 193.96875 209.15625 Z M 312.28125 114.84375 C 298.3125 105.5625 280.40625 116.71875 269.90625 126.09375 C 248.15625 145.59375 240.75 179.25 246.1875 207 C 247.03125 211.5 252.375 212.53125 255.09375 210.46875 C 255.75 211.125 256.6875 211.5 257.90625 211.6875 C 277.96875 213.65625 302.34375 205.96875 314.90625 189.375 C 323.25 178.3125 325.875 163.3125 326.15625 149.8125 C 326.25 137.34375 323.34375 122.15625 312.28125 114.84375 Z M 315.65625 153.46875 C 314.90625 166.5 311.34375 180.28125 300.9375 188.90625 C 289.96875 198 273.9375 202.96875 259.78125 201.5625 C 258.1875 201.375 256.875 201.9375 255.84375 202.78125 C 252.75 183.28125 256.3125 163.03125 266.625 146.0625 C 271.96875 137.25 279.65625 130.125 288.65625 125.25 C 293.71875 122.53125 300.375 120.5625 305.53125 122.90625 C 315.375 127.3125 316.21875 143.90625 315.65625 153.46875 Z M 234 223.3125 C 231.375 222.75 229.5 224.71875 228.75 227.34375 L 226.3125 235.78125 C 225.5625 238.5 227.71875 241.3125 229.875 241.78125 C 232.5 242.34375 234.375 240.375 235.125 237.75 L 237.5625 229.3125 C 238.40625 226.6875 236.25 223.78125 234 223.3125 Z M 252.1875 234.1875 C 251.4375 230.90625 249.84375 228 248.90625 224.8125 C 246.9375 218.53125 238.40625 221.90625 240.375 228.1875 C 241.3125 231.375 242.90625 234.28125 243.65625 237.5625 C 244.3125 240.28125 247.21875 241.59375 249.375 240.75 C 251.90625 239.71875 252.84375 236.8125 252.1875 234.1875 Z M 252.1875 234.1875 "/>
<path style=" stroke:none;fill-rule:nonzero;fill:rgb(0.392157%,0.392157%,0.392157%);fill-opacity:1;" d="M 393 336.375 C 389.90625 330.09375 390 323.4375 390.5625 316.59375 C 391.21875 309.65625 391.40625 303.375 390.375 296.53125 C 388.59375 284.4375 385.6875 272.34375 381.09375 261 C 377.8125 252.84375 373.3125 245.34375 367.3125 238.78125 C 364.40625 235.6875 360.9375 233.15625 357.375 231 C 355.5 229.875 353.4375 228.84375 351.46875 227.90625 C 350.53125 227.53125 349.6875 227.15625 348.9375 226.59375 C 348.75 226.5 348.5625 226.40625 348.375 226.3125 C 347.90625 225.65625 347.34375 225.1875 346.6875 224.8125 C 348.1875 222 349.6875 219.1875 351.09375 216.375 C 360.1875 197.53125 364.125 177.46875 364.21875 156.65625 C 364.40625 115.78125 350.4375 67.875 315.65625 43.21875 C 282.09375 19.40625 235.40625 16.96875 197.15625 29.4375 C 154.875 43.3125 120 83.4375 110.0625 126.5625 C 107.90625 135.84375 107.34375 145.59375 108.375 155.15625 C 107.25 156.09375 106.5 157.40625 106.40625 159.1875 C 106.3125 165.1875 105.28125 171.1875 105.65625 177.28125 C 106.03125 183.5625 107.53125 189.84375 109.40625 195.75 C 113.0625 207 119.53125 217.3125 127.03125 226.40625 C 132.1875 232.78125 137.90625 238.875 144 244.6875 C 127.96875 251.8125 117.84375 265.875 112.40625 283.03125 C 109.40625 292.59375 108 302.625 107.15625 312.5625 C 106.21875 323.0625 104.8125 333.1875 103.125 343.59375 C 101.34375 354.1875 100.03125 365.625 103.78125 375.84375 C 106.78125 384.09375 114.09375 389.34375 122.34375 391.5 C 126.46875 392.53125 131.34375 392.625 136.03125 391.78125 C 137.25 400.21875 139.125 408.46875 141.46875 416.625 C 142.875 421.6875 144.46875 426.75 146.15625 431.71875 C 146.90625 433.875 147.65625 436.03125 148.40625 438.1875 C 148.6875 439.03125 149.71875 440.53125 150.46875 441.9375 C 145.03125 444.46875 139.59375 447.1875 137.625 453.46875 C 134.8125 462.65625 142.21875 471.5625 149.71875 475.6875 C 157.96875 480.1875 168.28125 480.375 177.46875 480.46875 C 186.75 480.5625 195.9375 481.21875 205.125 481.3125 C 220.3125 481.40625 251.25 477.46875 245.8125 455.4375 C 244.3125 449.25 238.40625 442.875 239.90625 436.125 C 241.59375 428.625 254.625 427.78125 260.34375 428.4375 C 267.75 429.28125 277.03125 433.3125 277.875 441.75 C 278.53125 448.40625 274.21875 454.59375 275.90625 461.25 C 278.25 470.90625 290.8125 471.09375 298.6875 471.84375 C 313.21875 473.25 327.28125 472.125 341.71875 471.28125 C 350.90625 470.71875 360.09375 472.03125 369.1875 469.96875 C 378.65625 467.71875 385.5 461.53125 388.40625 452.25 C 390.75 444.75 387.375 438.28125 381.65625 433.59375 C 376.78125 429.5625 369.09375 426.5625 366.1875 420.75 C 365.0625 418.5 365.15625 416.15625 365.0625 413.71875 C 364.875 409.125 365.0625 404.53125 365.25 399.9375 C 365.4375 393.375 365.34375 386.90625 364.5 380.4375 C 371.4375 384.09375 379.59375 385.40625 387.09375 383.4375 C 394.96875 381.375 399.75 374.53125 402.09375 367.21875 C 405.65625 355.78125 397.6875 345.9375 393 336.375 Z M 134.71875 219.5625 C 128.0625 211.40625 122.625 202.3125 119.25 192.375 C 117.46875 187.21875 116.53125 181.875 116.0625 176.53125 C 115.78125 172.875 116.0625 169.125 116.34375 165.46875 C 118.5 164.90625 120.1875 163.21875 119.625 160.3125 C 115.125 136.40625 123 112.96875 135.46875 92.71875 C 147.28125 73.59375 164.4375 56.53125 184.3125 45.9375 C 219.46875 27.28125 267.09375 27.46875 301.875 46.6875 C 339.75 67.5 353.34375 115.59375 353.90625 156.09375 C 354.46875 199.3125 331.6875 240.28125 298.40625 267.1875 C 283.78125 279 266.25 287.71875 247.21875 288.28125 C 225.5625 288.9375 203.53125 276.65625 186.09375 264.9375 C 167.4375 252.28125 148.96875 237.09375 134.71875 219.5625 Z M 385.125 373.21875 C 379.40625 375.65625 372.1875 373.5 367.21875 370.125 C 360.5625 365.625 357.09375 358.96875 357.84375 350.90625 C 358.40625 344.8125 360.28125 339 361.21875 333 C 362.25 326.25 361.5 319.5 360 312.84375 C 358.21875 304.59375 354.46875 296.8125 350.71875 289.3125 C 347.8125 283.40625 338.0625 286.78125 340.96875 292.6875 C 347.15625 305.0625 352.96875 318.28125 350.8125 332.4375 C 349.125 343.125 345 353.625 349.3125 364.3125 C 350.4375 367.03125 351.9375 369.5625 353.8125 371.90625 C 353.0625 373.03125 352.6875 374.53125 353.15625 376.125 C 356.625 390.1875 353.625 404.625 354.84375 418.875 C 355.5 426.75 361.59375 432.1875 367.6875 436.5 C 371.625 439.21875 379.59375 442.875 378.5625 448.6875 C 376.875 458.15625 367.40625 460.5 359.25 461.0625 C 354.84375 461.34375 350.34375 461.15625 345.84375 461.15625 C 339.65625 461.0625 333.5625 462 327.46875 462.375 C 320.25 462.84375 312.9375 462.75 305.71875 462.375 C 299.90625 462 292.59375 462.1875 287.0625 459.9375 C 285.09375 459.09375 285.375 458.25 285.75 456.1875 C 286.3125 452.71875 287.4375 449.4375 287.8125 445.96875 C 288.84375 437.15625 284.90625 429.28125 277.59375 424.3125 C 264.28125 415.21875 238.6875 415.03125 230.53125 431.53125 C 227.0625 438.5625 230.34375 446.25 233.34375 452.71875 C 234.375 455.0625 236.25 458.25 236.0625 460.875 C 235.875 464.4375 231.09375 466.5 228.28125 467.71875 C 218.90625 471.75 207.65625 471.46875 197.71875 471.09375 C 188.71875 470.8125 179.71875 470.625 170.71875 470.25 C 162.375 469.875 152.625 468.5625 148.03125 460.6875 C 143.8125 453.5625 156.75 450.46875 161.15625 448.125 C 164.8125 446.15625 163.875 442.125 161.34375 440.0625 C 161.0625 438.9375 160.3125 438.09375 159.46875 437.625 C 158.625 436.125 157.78125 434.625 157.40625 433.3125 C 155.71875 428.34375 154.03125 423.375 152.53125 418.40625 C 149.53125 408.5625 147.09375 398.53125 145.78125 388.3125 C 151.875 384.9375 156.375 379.40625 156.46875 371.90625 C 156.65625 362.4375 148.96875 355.125 144 347.90625 C 136.40625 336.75 144 321.65625 146.4375 309.9375 C 147.84375 303.46875 137.71875 301.5 136.3125 307.96875 C 133.6875 320.53125 128.15625 333.09375 131.71875 346.03125 C 133.03125 350.71875 136.21875 354.84375 139.125 358.59375 C 141.65625 361.96875 145.3125 366 146.0625 370.3125 C 147.09375 376.5 140.53125 379.875 135.5625 381.28125 C 129 383.15625 121.3125 381.84375 116.25 377.15625 C 109.03125 370.5 111.375 356.8125 112.59375 348.28125 C 114.09375 337.78125 116.0625 327.46875 116.90625 316.875 C 118.3125 298.03125 121.3125 277.03125 134.90625 262.78125 C 139.6875 257.71875 145.875 254.53125 152.4375 252.375 C 162.9375 261.46875 174.28125 269.625 185.71875 276.9375 C 205.78125 289.78125 229.78125 300.65625 254.0625 298.125 C 275.8125 295.875 295.21875 283.875 311.15625 269.625 C 322.6875 259.40625 332.71875 247.21875 341.0625 234 C 342.84375 235.6875 345.46875 236.53125 347.90625 237.75 C 352.96875 240.1875 357.5625 243.28125 361.21875 247.59375 C 369.09375 256.6875 373.21875 268.5 376.3125 279.9375 C 377.90625 285.65625 378.9375 291.46875 379.875 297.375 C 381 304.5 380.53125 311.0625 379.875 318.1875 C 379.3125 324.75 379.6875 331.125 381.9375 337.40625 C 383.90625 342.9375 387.46875 347.8125 390 353.0625 C 393.75 360 393.28125 369.75 385.125 373.21875 Z M 385.125 373.21875 "/>
<path style=" stroke:none;fill-rule:nonzero;fill:rgb(0.392157%,0.392157%,0.392157%);fill-opacity:1;" d="M 275.34375 250.59375 C 275.15625 253.6875 270.46875 255.5625 267.9375 256.6875 C 263.25 258.84375 258.09375 260.34375 252.9375 261.09375 C 247.78125 261.84375 242.4375 261.1875 237.375 260.4375 C 231.75 259.59375 225.375 258.1875 221.0625 254.25 C 216.1875 249.75 209.4375 257.4375 214.21875 262.03125 C 219.5625 267 227.0625 269.0625 234.09375 270.375 C 240.75 271.59375 247.96875 272.25 254.625 271.21875 C 264.1875 269.8125 284.625 264.84375 285.46875 252.46875 C 285.84375 246.09375 275.71875 244.03125 275.34375 250.59375 Z M 275.34375 250.59375 "/>
</g>
</svg>
