<?xml version="1.0" encoding="UTF-8"?>
<svg xmlns="http://www.w3.org/2000/svg" xmlns:xlink="http://www.w3.org/1999/xlink" viewBox="0 0 50 50" width="50px" height="50px">
<g id="surface26871443">
<path style=" stroke:none;fill-rule:nonzero;fill:rgb(20.392157%,59.607846%,85.882354%);fill-opacity:1;" d="M 9 2 C 6.25 2 4 4.25 4 7 C 4 9.75 6.25 12 9 12 C 11.75 12 14 9.75 14 7 C 14 4.25 11.75 2 9 2 Z M 9 4 C 10.667969 4 12 5.332031 12 7 C 12 8.667969 10.667969 10 9 10 C 7.332031 10 6 8.667969 6 7 C 6 5.332031 7.332031 4 9 4 Z M 38 6 C 34.398438 6 31.441406 8.257812 30.40625 11.46875 C 28.683594 11.160156 26.867188 11 25 11 C 12.316406 11 2 19.074219 2 29 C 2 38.925781 12.316406 47 25 47 C 37.683594 47 48 38.925781 48 29 C 48 25.402344 46.648438 21.921875 44.21875 19.09375 C 45.332031 17.722656 46 15.945312 46 14 C 46 9.515625 42.484375 6 38 6 Z M 38 8 C 41.363281 8 44 10.636719 44 14 C 44 17.363281 41.363281 20 38 20 C 37.894531 20 37.78125 19.988281 37.65625 19.96875 C 37.429688 19.9375 37.191406 19.90625 37 19.90625 C 36.445312 19.90625 36 20.355469 36 20.90625 L 36 21 C 36 23.242188 34.242188 25 32 25 C 29.757812 25 28 23.242188 28 21 C 28 19.050781 29.515625 17.332031 31.4375 17.09375 C 31.726562 17.058594 31.964844 16.898438 32.125 16.65625 C 32.285156 16.414062 32.328125 16.09375 32.25 15.8125 C 32.074219 15.207031 32 14.605469 32 14 C 32 10.636719 34.636719 8 38 8 Z M 20.8125 18.40625 C 21.351562 18.296875 21.855469 18.648438 21.96875 19.1875 C 22.082031 19.726562 21.726562 20.261719 21.1875 20.375 C 15.769531 21.496094 12 25.046875 12 29 C 12 29.554688 11.550781 30 11 30 C 10.449219 30 10 29.554688 10 29 C 10 24.085938 14.457031 19.722656 20.8125 18.40625 Z M 20.8125 18.40625 "/>
</g>
</svg>
