<?xml version="1.0" encoding="UTF-8"?>
<svg xmlns="http://www.w3.org/2000/svg" xmlns:xlink="http://www.w3.org/1999/xlink" viewBox="0 0 48 48" width="48px" height="48px">
<g id="surface26870659">
<path style=" stroke:none;fill-rule:nonzero;fill:rgb(39.215687%,70.980394%,96.470588%);fill-opacity:1;" d="M 24 4 C 12.953125 4 4 12.953125 4 24 C 4 35.046875 12.953125 44 24 44 C 35.046875 44 44 35.046875 44 24 C 44 12.953125 35.046875 4 24 4 Z M 24 4 "/>
<path style=" stroke:none;fill-rule:nonzero;fill:rgb(73.333335%,87.058824%,98.431373%);fill-opacity:1;" d="M 12 26 C 10.898438 26 10 25.101562 10 24 C 10 16.300781 16.300781 10 24 10 C 25.101562 10 26 10.898438 26 12 C 26 13.101562 25.101562 14 24 14 C 18.5 14 14 18.5 14 24 C 14 25.101562 13.101562 26 12 26 Z M 12 26 "/>
</g>
</svg>
