<?xml version="1.0" encoding="UTF-8"?>
<svg xmlns="http://www.w3.org/2000/svg" xmlns:xlink="http://www.w3.org/1999/xlink" viewBox="0 0 48 48" width="48px" height="48px">
<defs>
<radialGradient id="radial0" gradientUnits="userSpaceOnUse" cx="61.296501" cy="63.812" fx="61.296501" fy="63.812" r="84.11158" gradientTransform="matrix(0.27907,0,0,0.27907,0,0)">
<stop offset="0" style="stop-color:rgb(20%,74.509805%,94.117647%);stop-opacity:1;"/>
<stop offset="1" style="stop-color:rgb(3.921569%,52.156866%,85.09804%);stop-opacity:1;"/>
</radialGradient>
</defs>
<g id="surface26870113">
<path style=" stroke:none;fill-rule:nonzero;fill:url(#radial0);" d="M 24 4 C 12.953125 4 4 12.953125 4 24 C 4 35.046875 12.953125 44 24 44 C 35.046875 44 44 35.046875 44 24 C 44 12.953125 35.046875 4 24 4 Z M 24 4 "/>
<path style=" stroke:none;fill-rule:nonzero;fill:rgb(31.37255%,90.196079%,100%);fill-opacity:1;" d="M 10 24 C 8.898438 24 8 23.101562 8 22 C 8 14.300781 14.300781 8 22 8 C 23.101562 8 24 8.898438 24 10 C 24 11.101562 23.101562 12 22 12 C 16.5 12 12 16.5 12 22 C 12 23.101562 11.101562 24 10 24 Z M 10 24 "/>
</g>
</svg>
