<svg xmlns="http://www.w3.org/2000/svg"  viewBox="0 0 40 40" width="40px" height="40px"><path fill="#f78f8f" d="M20.017,18.465c0-0.047,0.004-0.092,0.004-0.139c0-0.069-0.007-0.134-0.007-0.203 C20.015,18.235,20.016,18.35,20.017,18.465z"/><path fill="#c74343" d="M20.014,18.123c0,0.005,0,0.01,0,0.015C20.014,18.133,20.014,18.128,20.014,18.123L20.014,18.123z M20.014,18.138c0.001,0.108,0.002,0.218,0.003,0.327c0-0.047,0.004-0.092,0.004-0.139C20.021,18.262,20.015,18.201,20.014,18.138 L20.014,18.138z"/><path fill="#f78f8f" d="M10.545,38.5c0.32-1.747,2.274-3,4.038-3c0.619,0,1.271-0.129,1.844-1.067 c0.235-0.402,0.461-0.927,0.678-1.435c0.12-0.281,0.236-0.553,0.347-0.782l0.325-0.68L17.023,31.5 c-7.034-0.328-10.904-2.689-12.549-7.658c-0.087-0.264-0.293-0.509-0.625-0.799c0.381-0.174,0.908-0.31,1.552-0.31 c0.416,0,0.98,0.06,1.582,0.298c-0.242,0.147-0.455,0.324-0.525,0.606c-0.037,0.147-0.046,0.376,0.123,0.635 c1.821,2.796,5.999,4.218,12.418,4.227l0.372,0l0.107-0.356c0.518-1.714,0.851-3.381,1.02-5.096l0.046-0.47l-0.466-0.073 c-5.142-0.808-8.677-5.447-9.785-9.416c-0.064-0.231-0.15-0.403-0.291-0.549c0.65-0.406,1.419-0.821,1.945-0.821 c0.158,0,0.295,0.033,0.413,0.161c-0.347,0.313-0.681,0.738-0.504,1.248c0.786,2.263,3.588,5.826,8.084,6.368l0.548,0.066 l0.012-0.552c0.003-0.163,0-1.173,0-1.173c0-3.477,0.001-7.071-0.906-9.024c0.726-0.283,1.854-0.45,2.691-0.49 c0.026,0.132,0.106,0.273,0.219,0.472c0.026,0.046,0.054,0.094,0.08,0.14c-0.198,0.387-0.184,0.866-0.056,1.23 C23.708,13.536,24.5,18.694,24.5,23l0.001,0.301c0.002,0.236,0.004,0.504-0.001,0.686l-0.016,0.631l0.618-0.129 c4.858-1.014,7.683-4.523,8.394-10.43c0.055-0.459-0.084-0.861-0.413-1.199c0.01-0.013,0.021-0.025,0.033-0.039 c0.297-0.317,1.069-0.644,1.849-0.644c0.417,0,0.742,0.099,0.915,0.278c0.082,0.084,0.133,0.192,0.155,0.327 C35.638,13.181,35.5,13.794,35.5,14c0,8.581-3.548,13.461-10.544,14.505h-0.405l-0.04,0.39c-0.317,1.499-0.988,3.061-1.58,4.438 l-0.254,0.593c-0.118,0.406-0.052,0.766,0.161,1.047C23.092,35.308,23.516,35.5,24,35.5c1.793,0,3.23,1.282,3.466,3H10.545z"/><path fill="#c74343" d="M21.96,8.844c0.022,0.041,0.044,0.082,0.068,0.124c-0.155,0.476-0.103,0.987,0.029,1.362 C23.219,13.653,24,18.745,24,23l0.001,0.305c0.002,0.23,0.004,0.492-0.001,0.669l-0.033,1.263l1.237-0.258 c3.5-0.731,7.867-3.208,8.788-10.859c0.056-0.465-0.044-0.849-0.215-1.158c0.289-0.145,0.734-0.284,1.187-0.284 c0.211,0,0.365,0.033,0.459,0.07C35.116,13.209,35,13.741,35,14c0,8.264-3.379,12.974-10.043,14l-0.773,0.021l-0.163,0.771 c-0.307,1.453-0.969,2.992-1.553,4.351l-0.252,0.588l-0.025,0.059l-0.017,0.062c-0.14,0.498-0.043,1.017,0.266,1.424 C22.789,35.736,23.358,36,24,36c1.33,0,2.432,0.824,2.835,2H11.232c0.561-1.18,2.04-2,3.351-2c0.685,0,1.562-0.148,2.28-1.323 c0.246-0.421,0.477-0.959,0.7-1.48c0.118-0.275,0.231-0.541,0.339-0.765l0.651-1.36l-1.507-0.07 c-6.796-0.317-10.527-2.573-12.097-7.315c-0.046-0.139-0.11-0.269-0.194-0.396c0.199-0.035,0.416-0.056,0.646-0.056 c0.188,0,0.41,0.014,0.652,0.055c-0.033,0.07-0.06,0.146-0.081,0.228c-0.086,0.344-0.019,0.709,0.189,1.029 C8.081,27.492,12.4,28.991,18.999,29l0.744,0.001l0.215-0.712c0.527-1.745,0.867-3.444,1.038-5.192l0.092-0.939l-0.932-0.146 c-4.923-0.774-8.313-5.237-9.38-9.056c-0.024-0.087-0.051-0.168-0.082-0.244c0.242-0.138,0.488-0.265,0.711-0.355 c-0.108,0.277-0.139,0.591-0.019,0.937c1.022,2.944,4.269,6.191,8.496,6.7l1.1,0.132l0.02-1.107c0.003-0.161,0.002-0.478,0-0.737 L21,18v-0.161c0-3.249,0-6.6-0.743-8.715C20.761,8.989,21.384,8.891,21.96,8.844 M22.657,7.814c-1.051,0-2.917,0.244-3.751,0.785 c0.079,0.121,0.153,0.254,0.221,0.398C20.015,10.871,20,14.615,20,18c0,0.228,0.005,0.774,0.001,1L20,19 c-4.114-0.496-6.858-3.696-7.671-6.035C12.215,12.635,12.651,12.276,13,12c-0.22-0.563-0.593-0.781-1.053-0.781 c-0.812,0-1.894,0.678-2.88,1.332c0.602,0.258,0.669,0.402,0.744,0.673C11.062,17.703,14.951,22.206,20,23h0 c-0.156,1.594-0.471,3.25-1,5c-3.766-0.005-9.732-0.517-12-4c-0.289-0.443,0.459-0.576,1-1c-0.833-0.548-1.757-0.766-2.599-0.766 C4.38,22.234,3.478,22.555,3,23c0.553,0.424,0.913,0.737,1,1c2,6.042,7.058,7.723,13,8c-0.304,0.635-0.659,1.589-1,2.172 C15.558,34.894,15.113,35,14.583,35C12.343,35,10,36.761,10,39h18c0-2.239-1.761-4-4-4c-0.594,0-0.997-0.403-0.863-0.879 c0.643-1.514,1.488-3.35,1.863-5.122c0.001,0,0.001,0,0.002,0c0.009,0,0.017,0.001,0.026,0.001c0,0,0.001,0,0.002,0 C33.125,27.792,36,21.75,36,14c0-0.142,0.152-0.758,0.547-0.988c0.034-0.971-0.718-1.334-1.582-1.334 c-1.149,0-2.496,0.643-2.45,1.351C33.024,13.4,33.028,13.769,33,14c-0.793,6.585-4.208,9.208-8,10c0.007-0.271,0-0.726,0-1 c0-4.665-0.872-9.776-2-13c-0.109-0.313-0.106-0.75,0.148-1.002c0.062-0.035-0.415-0.759-0.367-0.771 C23.797,7.96,23.471,7.814,22.657,7.814L22.657,7.814z"/><path fill="#c74343" d="M5.5,23.786c-2.481,0-4.5-2.019-4.5-4.5C1,18.576,1.575,18,2.286,18s1.286,0.576,1.286,1.286 c0,1.063,0.865,1.929,1.929,1.929s1.929-0.865,1.929-1.929c0-0.71,0.575-1.286,1.286-1.286C9.425,18,10,18.576,10,19.286 C10,21.767,7.981,23.786,5.5,23.786z"/><g><path fill="#c74343" d="M10.5,12.786c-2.481,0-4.5-2.019-4.5-4.5C6,7.576,6.575,7,7.286,7s1.286,0.576,1.286,1.286 c0,1.063,0.865,1.929,1.929,1.929s1.929-0.865,1.929-1.929c0-0.71,0.575-1.286,1.286-1.286C14.425,7,15,7.576,15,8.286 C15,10.767,12.981,12.786,10.5,12.786z"/></g><g><path fill="#c74343" d="M34.468,13.474c-2.147,0-4.015-1.526-4.442-3.627c-0.142-0.701,0.311-1.384,1.012-1.526 c0.711-0.138,1.385,0.312,1.528,1.012c0.182,0.899,0.983,1.552,1.903,1.552c1.071,0,1.942-0.896,1.942-2.59 C36.41,7.58,36.989,7,37.705,7C38.421,7,39,7.58,39,8.295C39,11.763,36.967,13.474,34.468,13.474z"/></g><g><path fill="#c74343" d="M21.5,9.25c-3.033,0-5.5-2.467-5.5-5.499c0-0.627,0.106-1.244,0.313-1.833 c0.254-0.715,1.038-1.092,1.755-0.839c0.716,0.252,1.092,1.038,0.839,1.754c-0.105,0.294-0.157,0.603-0.157,0.917 c0,1.517,1.234,2.749,2.75,2.749s2.75-1.233,2.75-2.75c0-0.759,0.615-1.375,1.375-1.375S27,2.991,27,3.75 C27,6.783,24.533,9.25,21.5,9.25z"/></g></svg>