<svg xmlns="http://www.w3.org/2000/svg"  viewBox="0 0 128 128" width="128px" height="128px"><path fill="#fff" d="M107.1,71.8l-10.8-7.2c-1.5-1-2.2-2.7-1.8-4.4l1.8-8.7c1-4.9-3.3-9.2-8.2-8.2l-7,1.4c-2.8,0.6-5.6-0.6-7.2-3l-3.9-5.9c-2.8-4.2-8.9-4.2-11.7,0l-3.9,5.9c-1.6,2.4-4.4,3.6-7.2,3l-7-1.4c-4.9-1-9.2,3.3-8.2,8.2l1.8,8.7c0.3,1.7-0.4,3.5-1.8,4.4l-10.8,7.2c-2.4,1.6-2.6,5-0.5,6.8c0,0,0,0,0,0c0.1,0.1,0.3,0.2,0.4,0.3l10.8,7.2c0.5,0.4,1,0.8,1.3,1.4c9.2,5,19.7,7.8,31,7.8s21.8-2.9,31-7.8c0.3-0.5,0.8-1,1.3-1.4l10.8-7.2c0.2-0.1,0.3-0.2,0.4-0.3c0,0,0,0,0,0C109.6,76.8,109.5,73.4,107.1,71.8z"/><path fill="#fff" d="M107.1,71.8l-10.8-7.2c-1.5-1-2.2-2.7-1.8-4.4l1.8-8.7c1-4.9-3.3-9.2-8.2-8.2l-7,1.4c-2.8,0.6-5.6-0.6-7.2-3l-3.9-5.9c-2.8-4.2-8.9-4.2-11.7,0l-3.9,5.9c-1.6,2.4-4.4,3.6-7.2,3l-7-1.4c-4.9-1-9.2,3.3-8.2,8.2l1.8,8.7c0.3,1.7-0.4,3.5-1.8,4.4l-10.8,7.2c-2.4,1.6-2.6,5-0.5,6.8c0,0,0,0,0,0c0.1,0.1,0.3,0.2,0.4,0.3l10.8,7.2c0.5,0.4,1,0.8,1.3,1.4c9.2,5,19.7,7.8,31,7.8s21.8-2.9,31-7.8c0.3-0.5,0.8-1,1.3-1.4l10.8-7.2c0.2-0.1,0.3-0.2,0.4-0.3c0,0,0,0,0,0C109.6,76.8,109.5,73.4,107.1,71.8z"/><path fill="#c3dbea" d="M64 65.4A25 10 0 1 0 64 85.4A25 10 0 1 0 64 65.4Z"/><path fill="#00457c" d="M21.3,73.2c-2.4-0.8-4.3,2.2-2.4,3.9C30.6,88.5,46.5,95.4,64,95.4s33.4-6.9,45.1-18.2c1.8-1.8,0-4.8-2.4-3.9C93.3,77.9,79,80.4,64,80.4S34.7,77.9,21.3,73.2z"/><path fill="#fff" d="M21.3,73.2c-2.4-0.8-4.3,2.2-2.4,3.9C30.6,88.5,46.5,95.4,64,95.4s33.4-6.9,45.1-18.2c1.8-1.8,0-4.8-2.4-3.9C93.3,77.9,79,80.4,64,80.4S34.7,77.9,21.3,73.2z"/><path fill="#3f4a54" d="M64,98.4c17.7,0,34.5-6.8,47.2-19.1c1.8-1.8,2.2-4.5,0.8-6.7c-0.4-0.6-0.9-1.1-1.4-1.5c0,0-0.1-0.1-0.1-0.1l-12.6-8.9c-0.4-0.3-0.7-0.8-0.6-1.3l1.8-8.7c0.7-3.3-0.4-6.7-2.7-9c-2.4-2.4-5.8-3.4-9-2.7l-7,1.4c-1.6,0.3-3.2-0.3-4.1-1.7l-3.9-5.9c-1.9-2.8-5-4.5-8.3-4.5s-6.5,1.7-8.3,4.5L51.7,40c-0.9,1.4-2.5,2-4.1,1.7l-7-1.4c-3.3-0.7-6.7,0.4-9,2.7c-2.4,2.4-3.4,5.8-2.7,9l1.8,8.7c0.1,0.5-0.1,1.1-0.6,1.3c-1.4,0.9-1.8,2.8-0.8,4.2c0.9,1.4,2.8,1.8,4.2,0.8c2.5-1.7,3.7-4.6,3.1-7.5l-1.8-8.7c-0.3-1.3,0.1-2.7,1.1-3.6c1-1,2.3-1.4,3.6-1.1l7,1.4c4,0.8,8-0.9,10.3-4.3l3.9-5.9c0.8-1.1,2-1.8,3.3-1.8s2.6,0.7,3.3,1.8l3.9,5.9c2.3,3.4,6.3,5.1,10.3,4.3l7-1.4c1.3-0.3,2.7,0.1,3.6,1.1c1,1,1.4,2.3,1.1,3.6l-1.8,8.7c-0.6,2.9,0.6,5.9,3,7.5l6.7,4.7c-12,3.7-24.5,5.6-37.2,5.6c-14.3,0-28.3-2.4-41.7-7c0,0,0,0,0,0c-2.4-0.8-5,0.1-6.4,2.3c-1.3,2.2-1,4.9,0.8,6.7C29.5,91.6,46.3,98.4,64,98.4z M64,83.4c14,0,27.7-2.2,40.9-6.4C93.6,87,79.2,92.4,64,92.4S34.4,87,23.1,77C36.3,81.3,50,83.4,64,83.4z"/></svg>