<?xml version="1.0" encoding="UTF-8"?>
<svg xmlns="http://www.w3.org/2000/svg" xmlns:xlink="http://www.w3.org/1999/xlink" viewBox="0 0 120 120" width="120px" height="120px">
<g id="surface29638511">
<path style=" stroke:none;fill-rule:nonzero;fill:rgb(90.588236%,29.803923%,23.529412%);fill-opacity:1;" d="M 70.914062 11.953125 C 69.59375 11.992188 68.378906 12.679688 67.664062 13.789062 C 67.664062 13.789062 65.285156 17.542969 63.171875 24 L 36 24 C 34.929688 23.984375 33.898438 24.402344 33.136719 25.152344 C 32.375 25.902344 31.945312 26.929688 31.945312 28 L 28 28 C 24.160156 28 20.863281 30.722656 20.140625 34.492188 L 16.648438 44.851562 C 16.222656 45.847656 16 46.917969 16 48 C 16 50.078125 16.808594 52.078125 18.257812 53.570312 C 18.347656 53.671875 24 60.03125 24 64 C 24 70.457031 16 75.8125 16 84 C 16 90.375 16.632812 94.847656 17.398438 97.921875 C 18.28125 101.480469 21.429688 104 25.101562 104 L 38.515625 104 C 41.96875 104 45.078125 101.804688 46.132812 98.515625 C 47.085938 95.53125 48 91.710938 48 88 C 48 76.261719 46.859375 74.199219 45.796875 69.875 C 45.574219 68.976562 45.566406 68.09375 45.648438 67.234375 C 47.25 68.394531 49.457031 68.210938 50.84375 66.800781 C 52.230469 65.394531 52.382812 63.1875 51.203125 61.601562 L 50.492188 60.65625 C 51.4375 60.257812 52.464844 60 53.570312 60 L 62.015625 60 C 64.289062 68.953125 67.671875 74.21875 67.671875 74.21875 C 68.453125 75.433594 69.828125 76.132812 71.269531 76.046875 C 72.714844 75.960938 73.996094 75.105469 74.628906 73.804688 C 75.261719 72.507812 75.148438 70.96875 74.328125 69.78125 C 74.328125 69.78125 68 60.4375 68 44.03125 C 68 27.625 74.335938 18.210938 74.335938 18.210938 C 75.1875 16.96875 75.265625 15.355469 74.542969 14.03125 C 73.820312 12.710938 72.417969 11.90625 70.914062 11.953125 Z M 83.914062 23.953125 C 82.59375 23.992188 81.378906 24.679688 80.664062 25.789062 C 80.664062 25.789062 76 32.964844 76 44.015625 C 76 55.066406 80.671875 62.21875 80.671875 62.21875 C 81.453125 63.433594 82.828125 64.132812 84.269531 64.046875 C 85.714844 63.960938 86.996094 63.105469 87.628906 61.804688 C 88.261719 60.507812 88.148438 58.96875 87.328125 57.78125 C 87.328125 57.78125 84 52.929688 84 44.015625 C 84 35.101562 87.335938 30.210938 87.335938 30.210938 C 88.1875 28.96875 88.265625 27.351562 87.542969 26.03125 C 86.820312 24.710938 85.417969 23.90625 83.914062 23.953125 Z M 108 36 C 105.144531 36.003906 102.507812 37.527344 101.078125 40 L 92.492188 40 C 92.214844 41.066406 92 42.410156 92 44.007812 C 92 45.601562 92.210938 46.9375 92.484375 48 L 101.085938 48 C 102.511719 50.472656 105.148438 51.996094 108 52 C 112.417969 52 116 48.417969 116 44 C 116 39.582031 112.417969 36 108 36 Z M 108 36 "/>
</g>
</svg>
