<?xml version="1.0" encoding="UTF-8"?>
<svg xmlns="http://www.w3.org/2000/svg" xmlns:xlink="http://www.w3.org/1999/xlink" viewBox="0 0 96 96" width="96px" height="96px">
<defs>
<linearGradient id="linear0" gradientUnits="userSpaceOnUse" x1="126.190666" y1="125.706917" x2="44.118" y2="44.759418" gradientTransform="matrix(0.55814,0,0,0.55814,0,0)">
<stop offset="0" style="stop-color:rgb(90.196079%,49.411765%,13.333334%);stop-opacity:1;"/>
<stop offset="1" style="stop-color:rgb(100%,94.117647%,80.784315%);stop-opacity:1;"/>
</linearGradient>
</defs>
<g id="surface15449876">
<path style=" stroke:none;fill-rule:nonzero;fill:url(#linear0);" d="M 27.011719 31.171875 C 29.621094 26.410156 33.296875 22.3125 37.75 19.199219 C 42.15625 16.058594 47.171875 13.875 52.476562 12.789062 C 58.058594 11.660156 63.828125 11.820312 69.34375 13.257812 C 74.777344 14.722656 79.878906 17.214844 84.378906 20.597656 L 84.777344 20.890625 C 87.523438 22.90625 89.351562 25.933594 89.855469 29.300781 C 90.363281 32.671875 89.503906 36.101562 87.46875 38.835938 C 83.214844 44.535156 75.15625 45.730469 69.429688 41.515625 C 68.769531 41.023438 68.15625 40.472656 67.59375 39.867188 C 64.59375 36.179688 60.140625 33.980469 55.386719 33.84375 C 50.167969 33.875 45.195312 36.078125 41.664062 39.917969 L 40.949219 40.734375 C 37.859375 44.269531 32.492188 44.648438 28.933594 41.582031 C 25.929688 38.992188 25.128906 34.664062 27.011719 31.171875 Z M 67.066406 54.484375 C 63.507812 51.417969 58.140625 51.796875 55.050781 55.332031 L 54.335938 56.148438 C 50.804688 59.992188 45.832031 62.195312 40.613281 62.226562 C 35.859375 62.089844 31.40625 59.890625 28.40625 56.199219 C 27.84375 55.597656 27.230469 55.046875 26.570312 54.554688 C 20.84375 50.335938 12.785156 51.53125 8.53125 57.234375 C 6.496094 59.96875 5.636719 63.398438 6.144531 66.769531 C 6.648438 70.140625 8.476562 73.167969 11.222656 75.1875 L 11.621094 75.476562 C 16.117188 78.863281 21.222656 81.355469 26.65625 82.820312 C 32.171875 84.261719 37.941406 84.417969 43.523438 83.289062 C 48.828125 82.203125 53.84375 80.019531 58.25 76.875 C 62.703125 73.761719 66.378906 69.664062 68.988281 64.898438 C 70.871094 61.40625 70.070312 57.074219 67.066406 54.484375 Z M 67.066406 54.484375 "/>
</g>
</svg>
