<?xml version="1.0" encoding="UTF-8"?>
<svg xmlns="http://www.w3.org/2000/svg" xmlns:xlink="http://www.w3.org/1999/xlink" viewBox="0 0 160 160" width="160px" height="160px">
<g id="surface27673456">
<path style=" stroke:none;fill-rule:nonzero;fill:rgb(58.431375%,64.705884%,65.098041%);fill-opacity:1;" d="M 80.003906 155 C 38.648438 155 5.003906 121.355469 5.003906 80 C 5.003906 38.644531 38.644531 5 80.003906 5 C 121.355469 5 155 38.644531 155 80 C 155 121.355469 121.355469 155 80.003906 155 Z M 80.003906 155 "/>
<path style=" stroke:none;fill-rule:nonzero;fill:rgb(40.000001%,40.000001%,40.000001%);fill-opacity:1;" d="M 80.003906 6.003906 C 120.804688 6.003906 154.003906 39.199219 154.003906 80.003906 C 154.003906 120.804688 120.804688 154.003906 80.003906 154.003906 C 39.199219 154.003906 6.003906 120.804688 6.003906 80.003906 C 6.003906 39.199219 39.199219 6.003906 80.003906 6.003906 M 80.003906 4.003906 C 38.027344 4.003906 4.003906 38.027344 4.003906 80.003906 C 4.003906 121.976562 38.027344 156.003906 80.003906 156.003906 C 121.976562 156.003906 156.003906 121.976562 156.003906 80.003906 C 156.003906 38.027344 121.972656 4.003906 80.003906 4.003906 Z M 80.003906 4.003906 "/>
<path style=" stroke:none;fill-rule:nonzero;fill:rgb(20%,20%,20%);fill-opacity:1;" d="M 68.097656 60.546875 C 68.097656 56.09375 72.089844 52.253906 80.300781 52.253906 C 89.601562 52.253906 96.292969 54.886719 101.496094 58.039062 L 101.496094 43.011719 C 97.628906 40.859375 91.789062 39.597656 83.957031 39.222656 L 83.957031 29.09375 L 75.832031 29.09375 L 75.832031 39.449219 C 69.042969 40.117188 63.585938 42.503906 59.464844 46.601562 C 55.347656 50.703125 53.285156 55.664062 53.285156 61.488281 C 53.285156 84.511719 91.921875 85.222656 91.921875 97.839844 C 91.921875 102.328125 86.296875 105.796875 80.023438 105.796875 C 67.179688 105.796875 56.941406 100.363281 54.789062 98.617188 L 54.789062 114.035156 C 61.285156 117.410156 68.296875 119.121094 75.828125 119.15625 L 75.828125 130.902344 L 83.957031 130.902344 L 83.957031 118.824219 C 91.265625 118.007812 96.882812 115.71875 100.824219 111.953125 C 104.753906 108.1875 106.71875 103.21875 106.71875 97.058594 C 106.71875 72.484375 68.097656 74.363281 68.097656 60.546875 Z M 68.097656 60.546875 "/>
</g>
</svg>
