<?xml version="1.0" encoding="UTF-8"?>
<svg xmlns="http://www.w3.org/2000/svg" xmlns:xlink="http://www.w3.org/1999/xlink" viewBox="0 0 48 48" width="48px" height="48px">
<defs>
<linearGradient id="linear0" gradientUnits="userSpaceOnUse" x1="51.86517" y1="10.14083" x2="114.003754" y2="180.868744" gradientTransform="matrix(0.27907,0,0,0.27907,0,0)">
<stop offset="0" style="stop-color:rgb(12.941177%,67.843139%,39.215687%);stop-opacity:1;"/>
<stop offset="1" style="stop-color:rgb(3.137255%,50.980395%,25.882354%);stop-opacity:1;"/>
</linearGradient>
<linearGradient id="linear1" gradientUnits="userSpaceOnUse" x1="118.25" y1="17.436501" x2="118.25" y2="35.281502" gradientTransform="matrix(0.999999,0,0,0.999999,0,0)">
<stop offset="0" style="stop-color:rgb(16.470589%,64.313728%,95.686275%);stop-opacity:1;"/>
<stop offset="1" style="stop-color:rgb(0%,47.843137%,85.09804%);stop-opacity:1;"/>
</linearGradient>
<linearGradient id="linear2" gradientUnits="userSpaceOnUse" x1="575.125" y1="142.265503" x2="575.125" y2="182.416748" gradientTransform="matrix(0.999999,0,0,0.999999,0,0)">
<stop offset="0" style="stop-color:rgb(16.470589%,64.313728%,95.686275%);stop-opacity:1;"/>
<stop offset="1" style="stop-color:rgb(0%,47.843137%,85.09804%);stop-opacity:1;"/>
</linearGradient>
<linearGradient id="linear3" gradientUnits="userSpaceOnUse" x1="216.791672" y1="99.265503" x2="216.791672" y2="139.416748" gradientTransform="matrix(0.999999,0,0,0.999999,0,0)">
<stop offset="0" style="stop-color:rgb(16.470589%,64.313728%,95.686275%);stop-opacity:1;"/>
<stop offset="1" style="stop-color:rgb(0%,47.843137%,85.09804%);stop-opacity:1;"/>
</linearGradient>
<linearGradient id="linear4" gradientUnits="userSpaceOnUse" x1="71.666672" y1="203.784164" x2="71.666672" y2="221.629166" gradientTransform="matrix(0.999999,0,0,0.999999,0,0)">
<stop offset="0" style="stop-color:rgb(16.470589%,64.313728%,95.686275%);stop-opacity:1;"/>
<stop offset="1" style="stop-color:rgb(0%,47.843137%,85.09804%);stop-opacity:1;"/>
</linearGradient>
</defs>
<g id="surface25936376">
<path style=" stroke:none;fill-rule:nonzero;fill:url(#linear0);" d="M 28.003906 22.835938 C 27.734375 22.015625 27.546875 21.386719 27.398438 20.738281 C 27.230469 20.070312 27.101562 19.394531 27.015625 18.710938 C 26.816406 17.25 26.695312 15.777344 26.652344 14.300781 C 26.636719 13.570312 26.664062 12.84375 26.730469 12.117188 C 26.804688 11.332031 26.929688 10.402344 26.980469 9.414062 C 27.035156 8.425781 26.980469 7.4375 26.820312 6.464844 C 26.75 5.984375 26.632812 5.523438 26.53125 5.058594 C 26.390625 4.601562 26.261719 4.152344 26.089844 3.707031 C 25.976562 3.417969 25.746094 3.1875 25.453125 3.078125 C 24.886719 2.855469 24.242188 3.125 24.003906 3.6875 L 23.996094 3.707031 C 23.417969 5.253906 22.738281 6.761719 21.964844 8.222656 C 21.597656 8.902344 21.175781 9.605469 20.765625 10.476562 C 20.324219 11.390625 19.972656 12.34375 19.714844 13.324219 C 19.21875 15.242188 18.980469 17.214844 19 19.195312 C 19.007812 20.230469 19.097656 21.261719 19.269531 22.28125 C 19.457031 23.257812 19.699219 24.21875 19.992188 25.167969 C 20.261719 25.992188 20.453125 26.617188 20.597656 27.265625 C 20.765625 27.933594 20.890625 28.609375 20.976562 29.292969 C 21.175781 30.753906 21.296875 32.226562 21.335938 33.703125 C 21.355469 34.433594 21.328125 35.160156 21.257812 35.886719 C 21.1875 36.671875 21.0625 37.601562 21.011719 38.59375 C 20.957031 39.578125 21.011719 40.566406 21.171875 41.539062 C 21.242188 42.023438 21.363281 42.484375 21.464844 42.945312 C 21.605469 43.40625 21.734375 43.855469 21.90625 44.300781 C 22.019531 44.585938 22.25 44.816406 22.542969 44.925781 C 23.109375 45.148438 23.75 44.878906 23.992188 44.316406 L 23.996094 44.300781 C 24.578125 42.75 25.257812 41.242188 26.035156 39.785156 C 26.398438 39.101562 26.820312 38.398438 27.234375 37.53125 C 27.675781 36.617188 28.027344 35.664062 28.285156 34.683594 C 28.777344 32.765625 29.019531 30.792969 29 28.8125 C 28.992188 27.777344 28.902344 26.746094 28.730469 25.726562 C 28.542969 24.75 28.300781 23.785156 28.003906 22.835938 Z M 38.429688 20.863281 C 38.222656 20.117188 37.941406 19.390625 37.589844 18.695312 C 37.257812 18.035156 36.921875 17.5 36.628906 16.980469 C 36.007812 15.871094 35.464844 14.71875 35 13.539062 L 34.996094 13.523438 C 34.789062 13.089844 34.285156 12.886719 33.835938 13.058594 C 33.609375 13.140625 33.421875 13.316406 33.328125 13.539062 C 33.191406 13.878906 33.085938 14.21875 32.976562 14.570312 C 32.894531 14.921875 32.800781 15.273438 32.746094 15.640625 C 32.613281 16.382812 32.570312 17.136719 32.617188 17.886719 C 32.65625 18.640625 32.757812 19.351562 32.816406 19.945312 C 32.871094 20.5 32.890625 21.054688 32.878906 21.609375 C 32.84375 22.734375 32.746094 23.859375 32.585938 24.972656 C 32.515625 25.492188 32.417969 26.007812 32.28125 26.515625 C 32.164062 27.007812 32.011719 27.488281 31.796875 28.113281 C 31.558594 28.835938 31.363281 29.570312 31.214844 30.316406 C 31.078125 31.089844 31.007812 31.878906 31 32.667969 C 30.984375 34.175781 31.175781 35.683594 31.570312 37.140625 C 31.78125 37.890625 32.0625 38.617188 32.414062 39.308594 C 32.742188 39.972656 33.082031 40.507812 33.371094 41.027344 C 33.992188 42.136719 34.535156 43.285156 35 44.464844 L 35.007812 44.480469 C 35.214844 44.914062 35.71875 45.117188 36.167969 44.945312 C 36.394531 44.863281 36.582031 44.691406 36.675781 44.464844 C 36.8125 44.128906 36.917969 43.785156 37.027344 43.4375 C 37.109375 43.082031 37.207031 42.730469 37.261719 42.363281 C 37.390625 41.625 37.433594 40.871094 37.390625 40.117188 C 37.351562 39.363281 37.25 38.65625 37.195312 38.058594 C 37.136719 37.503906 37.117188 36.949219 37.128906 36.394531 C 37.164062 35.269531 37.261719 34.144531 37.417969 33.03125 C 37.488281 32.511719 37.589844 31.996094 37.722656 31.488281 C 37.855469 30.949219 38.015625 30.414062 38.207031 29.890625 C 38.441406 29.167969 38.636719 28.433594 38.785156 27.691406 C 38.921875 26.914062 38.996094 26.128906 39 25.339844 C 39.015625 23.828125 38.824219 22.324219 38.429688 20.863281 Z M 15.589844 18.695312 C 15.257812 18.035156 14.921875 17.5 14.628906 16.980469 C 14.007812 15.871094 13.464844 14.71875 13 13.539062 L 12.996094 13.523438 C 12.789062 13.089844 12.285156 12.886719 11.835938 13.058594 C 11.609375 13.140625 11.421875 13.316406 11.328125 13.539062 C 11.191406 13.878906 11.085938 14.21875 10.976562 14.570312 C 10.894531 14.921875 10.800781 15.273438 10.746094 15.640625 C 10.613281 16.382812 10.570312 17.136719 10.617188 17.886719 C 10.65625 18.640625 10.757812 19.351562 10.816406 19.945312 C 10.871094 20.5 10.890625 21.054688 10.878906 21.609375 C 10.84375 22.734375 10.746094 23.859375 10.585938 24.972656 C 10.515625 25.492188 10.414062 26.007812 10.28125 26.515625 C 10.164062 27.007812 10.011719 27.488281 9.796875 28.113281 C 9.558594 28.835938 9.363281 29.570312 9.214844 30.316406 C 9.078125 31.089844 9.007812 31.878906 9 32.667969 C 8.984375 34.175781 9.175781 35.683594 9.570312 37.140625 C 9.78125 37.890625 10.0625 38.617188 10.414062 39.308594 C 10.742188 39.972656 11.082031 40.507812 11.371094 41.027344 C 11.992188 42.136719 12.535156 43.285156 13 44.464844 L 13.007812 44.480469 C 13.214844 44.914062 13.71875 45.117188 14.167969 44.945312 C 14.394531 44.863281 14.582031 44.691406 14.675781 44.464844 C 14.8125 44.128906 14.917969 43.785156 15.027344 43.4375 C 15.109375 43.082031 15.207031 42.730469 15.261719 42.363281 C 15.390625 41.625 15.433594 40.871094 15.390625 40.117188 C 15.351562 39.363281 15.25 38.65625 15.195312 38.058594 C 15.136719 37.503906 15.117188 36.949219 15.128906 36.394531 C 15.164062 35.269531 15.261719 34.144531 15.417969 33.03125 C 15.488281 32.511719 15.589844 31.996094 15.722656 31.488281 C 15.855469 30.949219 16.015625 30.414062 16.207031 29.890625 C 16.441406 29.167969 16.636719 28.433594 16.785156 27.691406 C 16.921875 26.914062 16.996094 26.128906 17 25.339844 C 17.015625 23.828125 16.824219 22.324219 16.429688 20.863281 C 16.222656 20.117188 15.941406 19.390625 15.589844 18.695312 Z M 15.589844 18.695312 "/>
<path style=" stroke:none;fill-rule:nonzero;fill:url(#linear1);" d="M 35 7.003906 C 35 8.105469 34.105469 9.003906 33 9.003906 C 31.894531 9.003906 31 8.105469 31 7.003906 C 31 5.898438 31.894531 5.003906 33 5.003906 C 34.105469 5.003906 35 5.898438 35 7.003906 Z M 35 7.003906 "/>
<path style=" stroke:none;fill-rule:nonzero;fill:url(#linear2);" d="M 42 11.503906 C 42 12.332031 41.328125 13.003906 40.5 13.003906 C 39.671875 13.003906 39 12.332031 39 11.503906 C 39 10.671875 39.671875 10.003906 40.5 10.003906 C 41.328125 10.003906 42 10.671875 42 11.503906 Z M 42 11.503906 "/>
<path style=" stroke:none;fill-rule:nonzero;fill:url(#linear3);" d="M 17 8.503906 C 17 9.332031 16.328125 10.003906 15.5 10.003906 C 14.671875 10.003906 14 9.332031 14 8.503906 C 14 7.671875 14.671875 7.003906 15.5 7.003906 C 16.328125 7.003906 17 7.671875 17 8.503906 Z M 17 8.503906 "/>
<path style=" stroke:none;fill-rule:nonzero;fill:url(#linear4);" d="M 8 20.003906 C 8 20.554688 7.550781 21.003906 7 21.003906 C 6.449219 21.003906 6 20.554688 6 20.003906 C 6 19.449219 6.449219 19.003906 7 19.003906 C 7.550781 19.003906 8 19.449219 8 20.003906 Z M 8 20.003906 "/>
</g>
</svg>
