<?xml version="1.0" encoding="UTF-8"?>
<svg xmlns="http://www.w3.org/2000/svg" xmlns:xlink="http://www.w3.org/1999/xlink" viewBox="0 0 50 50" width="50px" height="50px">
<g id="surface25937290">
<path style=" stroke:none;fill-rule:nonzero;fill:rgb(18.039216%,80.000001%,44.313726%);fill-opacity:1;" d="M 35.5 1 C 35.453125 1 35.324219 1.023438 35.25 1.035156 C 34.382812 1.1875 32.574219 1.652344 31.785156 1.910156 C 26.613281 3.585938 17 7.691406 17 15 C 17 19.625 21 21.902344 21 27 C 21 30 19 32 15 35 C 10.816406 38.136719 9 43 9 48 C 9 48.492188 9.359375 48.914062 9.851562 48.988281 C 9.902344 48.996094 9.949219 49 10.003906 49 C 10.433594 49 10.820312 48.722656 10.953125 48.300781 C 10.957031 48.292969 11.082031 47.875 11.144531 47.628906 C 11.476562 46.277344 13.070312 41.765625 19.78125 39.917969 C 25.25 38.75 31 35.75 31 29 C 31 23 25 20 25 14 C 25 6.328125 33.015625 2.890625 35.375 2.070312 C 35.484375 2.03125 35.675781 1.964844 35.675781 1.964844 C 35.863281 1.894531 36 1.714844 36 1.5 C 36 1.222656 35.777344 1 35.5 1 Z M 38 6 C 37.449219 6 37 6.449219 37 7 C 37 7.550781 37.449219 8 38 8 C 38.550781 8 39 7.550781 39 7 C 39 6.449219 38.550781 6 38 6 Z M 2.5 10 C 2.21875 10 2 10.21875 2 10.5 C 2 10.648438 2.070312 10.777344 2.167969 10.871094 C 2.167969 10.871094 2.230469 10.9375 2.339844 11.039062 C 3.179688 11.9375 7 16.359375 7 23 C 7 25.488281 6.328125 27.101562 5.617188 28.8125 C 4.828125 30.742188 4 32.738281 4 36 C 4 39.628906 5.671875 43.191406 7.132812 45.601562 C 7.140625 45.5 7.164062 45.402344 7.183594 45.304688 C 7.777344 40.496094 9.964844 36.429688 13.515625 33.644531 C 13.828125 32.019531 14.003906 30.199219 14 28 C 13.761719 18.308594 5.21875 11.777344 3.199219 10.371094 C 2.929688 10.179688 2.71875 10.0625 2.691406 10.050781 C 2.640625 10.019531 2.570312 10 2.5 10 Z M 43 10 C 42.449219 10 42 10.449219 42 11 C 42 11.550781 42.449219 12 43 12 C 43.550781 12 44 11.550781 44 11 C 44 10.449219 43.550781 10 43 10 Z M 37 14 C 35.355469 14 34 15.355469 34 17 C 34 18.644531 35.355469 20 37 20 C 38.644531 20 40 18.644531 40 17 C 40 15.355469 38.644531 14 37 14 Z M 37 16 C 37.5625 16 38 16.4375 38 17 C 38 17.5625 37.5625 18 37 18 C 36.4375 18 36 17.5625 36 17 C 36 16.4375 36.4375 16 37 16 Z M 47.5 22 C 44.910156 22 43.28125 22.601562 42.890625 22.761719 C 38.089844 24.699219 36.351562 29.839844 35.75 31.75 C 34.800781 34.75 33.789062 38.820312 26.160156 39.789062 C 24.480469 40.679688 22.511719 41.378906 20.261719 41.859375 C 17.050781 42.757812 15.25 44.320312 14.25 45.691406 C 15.230469 45.28125 16.46875 45 18 45 C 19.339844 45 20.777344 45.21875 22.289062 45.449219 C 24.089844 45.71875 25.949219 46 28 46 C 35.28125 46 39.898438 41.789062 40.988281 34.140625 C 41.710938 29.121094 43.390625 26.410156 46 24.089844 C 46.160156 23.960938 46.339844 23.820312 46.519531 23.6875 C 47.140625 23.25 47.589844 23.007812 47.730469 22.9375 C 47.890625 22.847656 48 22.691406 48 22.5 C 48 22.21875 47.78125 22 47.5 22 Z M 47.5 22 "/>
</g>
</svg>
