<?xml version="1.0" encoding="UTF-8"?>
<svg xmlns="http://www.w3.org/2000/svg" xmlns:xlink="http://www.w3.org/1999/xlink" viewBox="0 0 240 240" width="240px" height="240px">
<g id="surface27174657">
<path style=" stroke:none;fill-rule:nonzero;fill:rgb(0%,0%,0%);fill-opacity:1;" d="M 85 220 C 76.714844 220 70 213.285156 70 205 L 70 175 C 70 166.714844 76.714844 160 85 160 C 93.285156 160 100 166.714844 100 175 L 100 205 C 100 213.285156 93.285156 220 85 220 Z M 85 220 "/>
<path style=" stroke:none;fill-rule:nonzero;fill:rgb(0%,0%,0%);fill-opacity:1;" d="M 155 220 C 146.714844 220 140 213.285156 140 205 L 140 175 C 140 166.714844 146.714844 160 155 160 C 163.285156 160 170 166.714844 170 175 L 170 205 C 170 213.285156 163.285156 220 155 220 Z M 155 220 "/>
<path style=" stroke:none;fill-rule:nonzero;fill:rgb(0%,0%,0%);fill-opacity:1;" d="M 30 170 C 21.714844 170 15 163.285156 15 155 C 15 124.675781 39.675781 100 70 100 C 78.285156 100 85 106.714844 85 115 C 85 123.285156 78.285156 130 70 130 C 56.214844 130 45 141.214844 45 155 C 45 163.285156 38.285156 170 30 170 Z M 30 170 "/>
<path style=" stroke:none;fill-rule:nonzero;fill:rgb(0%,0%,0%);fill-opacity:1;" d="M 210 170 C 201.714844 170 195 163.285156 195 155 C 195 141.214844 183.785156 130 170 130 C 161.714844 130 155 123.285156 155 115 C 155 106.714844 161.714844 100 170 100 C 200.324219 100 225 124.675781 225 155 C 225 163.285156 218.285156 170 210 170 Z M 210 170 "/>
<path style=" stroke:none;fill-rule:nonzero;fill:rgb(90.588236%,29.803923%,23.529412%);fill-opacity:1;" d="M 66.113281 68.988281 L 90 50 C 86.59375 48.480469 55 40 45.878906 15 C 44.578125 21.921875 44.730469 29.34375 46.253906 36.824219 C 47.789062 44.304688 50.964844 51.910156 55.964844 58.691406 C 58.78125 62.589844 62.304688 65.988281 66.113281 68.988281 Z M 66.113281 68.988281 "/>
<path style=" stroke:none;fill-rule:nonzero;fill:rgb(90.588236%,29.803923%,23.529412%);fill-opacity:1;" d="M 173.886719 68.988281 L 150 50 C 153.40625 48.480469 185 40 194.121094 15 C 195.421875 21.921875 195.269531 29.34375 193.746094 36.824219 C 192.210938 44.304688 189.035156 51.910156 184.035156 58.691406 C 181.21875 62.589844 177.695312 65.988281 173.886719 68.988281 Z M 173.886719 68.988281 "/>
<path style=" stroke:none;fill-rule:nonzero;fill:rgb(0%,0%,0%);fill-opacity:1;" d="M 185 80 L 200 85 C 200 85 190 60 170 55 C 170 55 175 50 180 45 C 170 40 155 45 155 45 L 165 30 C 150 25 140 35 140 35 L 145 15 C 125 15 120 35.125 120 35.125 C 120 35.125 115 15 95 15 L 100 35 C 100 35 90 25 75 30 L 85 45 C 85 45 70 40 60 45 C 65 50 70 55 70 55 C 50 60 40 85 40 85 L 55 80 C 40 95 40 115 40 115 L 55 105 C 45 120 45 135 45 135 L 55 125 C 50 135 50 150 50 150 L 55 145 C 55 167.089844 80 195 120 195 C 160 195 185 167.089844 185 145 L 190 150 C 190 150 190 135 185 125 L 195 135 C 195 135 195 120 185 105 L 200 115 C 200 115 200 95 185 80 Z M 185 80 "/>
<path style=" stroke:none;fill-rule:nonzero;fill:rgb(90.196079%,49.411765%,13.333334%);fill-opacity:1;" d="M 105 85 C 105 93.285156 98.285156 100 90 100 C 81.714844 100 75 93.285156 75 85 C 75 76.714844 81.714844 70 90 70 C 98.285156 70 105 76.714844 105 85 Z M 105 85 "/>
<path style=" stroke:none;fill-rule:nonzero;fill:rgb(100%,100%,100%);fill-opacity:1;" d="M 95 75 C 95 77.761719 92.761719 80 90 80 C 87.238281 80 85 77.761719 85 75 C 85 72.238281 87.238281 70 90 70 C 92.761719 70 95 72.238281 95 75 Z M 95 75 "/>
<path style=" stroke:none;fill-rule:nonzero;fill:rgb(90.196079%,49.411765%,13.333334%);fill-opacity:1;" d="M 165 85 C 165 93.285156 158.285156 100 150 100 C 141.714844 100 135 93.285156 135 85 C 135 76.714844 141.714844 70 150 70 C 158.285156 70 165 76.714844 165 85 Z M 165 85 "/>
<path style=" stroke:none;fill-rule:nonzero;fill:rgb(100%,100%,100%);fill-opacity:1;" d="M 155 75 C 155 77.761719 152.761719 80 150 80 C 147.238281 80 145 77.761719 145 75 C 145 72.238281 147.238281 70 150 70 C 152.761719 70 155 72.238281 155 75 Z M 155 75 "/>
<path style=" stroke:none;fill-rule:nonzero;fill:rgb(0%,0%,0%);fill-opacity:1;" d="M 149.441406 175.140625 C 149.800781 173.621094 150 172.054688 150 170.453125 C 150 156.898438 136.570312 145.910156 120 145.910156 C 103.429688 145.910156 90 156.898438 90 170.453125 C 90 172.058594 90.199219 173.621094 90.558594 175.140625 C 98.664062 178.054688 108.34375 180 120 180 C 131.65625 180 141.335938 178.054688 149.441406 175.140625 Z M 149.441406 175.140625 "/>
<path style=" stroke:none;fill-rule:nonzero;fill:rgb(0%,0%,0%);fill-opacity:1;" d="M 120 195 C 118.925781 195 117.898438 194.898438 116.84375 194.863281 C 117.886719 194.949219 118.933594 195 120 195 Z M 120 195 "/>
<path style=" stroke:none;fill-rule:nonzero;fill:rgb(0%,0%,0%);fill-opacity:1;" d="M 123.15625 194.863281 C 122.101562 194.898438 121.074219 195 120 195 C 121.066406 195 122.113281 194.949219 123.15625 194.863281 Z M 123.15625 194.863281 "/>
<path style=" stroke:none;fill-rule:nonzero;fill:rgb(0%,0%,0%);fill-opacity:1;" d="M 185 145 C 185 145 176.105469 165.539062 149.441406 175.140625 C 146.960938 185.628906 136.335938 193.738281 123.15625 194.863281 C 161.285156 193.425781 185 166.496094 185 145 Z M 185 145 "/>
<path style=" stroke:none;fill-rule:nonzero;fill:rgb(0%,0%,0%);fill-opacity:1;" d="M 90.558594 175.140625 C 63.894531 165.539062 55 145 55 145 C 55 166.496094 78.714844 193.425781 116.84375 194.863281 C 103.671875 193.734375 93.039062 185.625 90.558594 175.140625 Z M 90.558594 175.140625 "/>
<path style=" stroke:none;fill-rule:nonzero;fill:rgb(0%,0%,0%);fill-opacity:1;" d="M 149.441406 175.140625 C 141.335938 178.054688 131.65625 180 120 180 C 108.34375 180 98.664062 178.054688 90.558594 175.140625 C 93.039062 185.628906 103.664062 193.738281 116.84375 194.863281 C 117.898438 194.898438 118.925781 195 120 195 C 121.074219 195 122.101562 194.898438 123.15625 194.863281 C 136.328125 193.734375 146.960938 185.625 149.441406 175.140625 Z M 149.441406 175.140625 "/>
<path style=" stroke:none;fill-rule:nonzero;fill:rgb(90.196079%,49.411765%,13.333334%);fill-opacity:1;" d="M 120 125 C 125.679688 125 130.78125 126.796875 134.421875 129.644531 C 138.105469 125.988281 140 120.804688 140 115 L 100 115 C 100 120.804688 101.894531 125.988281 105.578125 129.644531 C 109.21875 126.796875 114.320312 125 120 125 Z M 120 125 "/>
<path style=" stroke:none;fill-rule:nonzero;fill:rgb(100%,23.921569%,0%);fill-opacity:1;" d="M 120 125 C 114.320312 125 109.21875 126.796875 105.578125 129.644531 C 108.90625 132.941406 113.675781 135 120 135 C 126.324219 135 131.09375 132.941406 134.421875 129.644531 C 130.78125 126.796875 125.679688 125 120 125 Z M 120 125 "/>
</g>
</svg>
