<?xml version="1.0" encoding="UTF-8"?>
<svg xmlns="http://www.w3.org/2000/svg" xmlns:xlink="http://www.w3.org/1999/xlink" viewBox="0 0 144 144" width="144px" height="144px">
<defs>
<radialGradient id="radial0" gradientUnits="userSpaceOnUse" cx="88.289749" cy="83.917107" fx="88.289749" fy="83.917107" r="74.941833" gradientTransform="matrix(0.837209,0,0,0.837209,0,0)">
<stop offset="0.117" style="stop-color:rgb(80.000001%,80.000001%,80.000001%);stop-opacity:1;"/>
<stop offset="0.334" style="stop-color:rgb(80.000001%,80.000001%,80.000001%);stop-opacity:1;"/>
<stop offset="0.477" style="stop-color:rgb(80.000001%,80.000001%,80.000001%);stop-opacity:1;"/>
<stop offset="1" style="stop-color:rgb(80.000001%,80.000001%,80.000001%);stop-opacity:1;"/>
</radialGradient>
<radialGradient id="radial1" gradientUnits="userSpaceOnUse" cx="74.515419" cy="84.015518" fx="74.515419" fy="84.015518" r="65.123497" gradientTransform="matrix(0.837209,0,0,0.837209,0,0)">
<stop offset="0" style="stop-color:rgb(80.000001%,80.000001%,80.000001%);stop-opacity:1;"/>
<stop offset="0.629" style="stop-color:rgb(100%,100%,100%);stop-opacity:1;"/>
<stop offset="0.703" style="stop-color:rgb(80.000001%,80.000001%,80.000001%);stop-opacity:1;"/>
<stop offset="0.795" style="stop-color:rgb(80.000001%,80.000001%,80.000001%);stop-opacity:1;"/>
<stop offset="0.897" style="stop-color:rgb(40.000001%,40.000001%,40.000001%);stop-opacity:1;"/>
<stop offset="0.999" style="stop-color:rgb(40.000001%,40.000001%,40.000001%);stop-opacity:1;"/>
</radialGradient>
<radialGradient id="radial2" gradientUnits="userSpaceOnUse" cx="97.470253" cy="116.347252" fx="97.470253" fy="116.347252" r="72.401253" gradientTransform="matrix(0.837209,0,0,0.837209,0,0)">
<stop offset="0" style="stop-color:rgb(80.000001%,80.000001%,80.000001%);stop-opacity:1;"/>
<stop offset="0.438" style="stop-color:rgb(40.000001%,40.000001%,40.000001%);stop-opacity:1;"/>
<stop offset="0.804" style="stop-color:rgb(40.000001%,40.000001%,40.000001%);stop-opacity:1;"/>
<stop offset="1" style="stop-color:rgb(40.000001%,40.000001%,40.000001%);stop-opacity:1;"/>
</radialGradient>
<linearGradient id="linear0" gradientUnits="userSpaceOnUse" x1="91.375" y1="21.76158" x2="91.375" y2="139.631744" gradientTransform="matrix(0.837209,0,0,0.837209,0,0)">
<stop offset="0" style="stop-color:rgb(80.000001%,80.000001%,80.000001%);stop-opacity:1;"/>
<stop offset="0.192" style="stop-color:rgb(40.000001%,40.000001%,40.000001%);stop-opacity:1;"/>
<stop offset="0.52" style="stop-color:rgb(80.000001%,80.000001%,80.000001%);stop-opacity:1;"/>
<stop offset="1" style="stop-color:rgb(40.000001%,40.000001%,40.000001%);stop-opacity:1;"/>
</linearGradient>
<linearGradient id="linear1" gradientUnits="userSpaceOnUse" x1="139.233994" y1="82.4095" x2="157.666672" y2="82.4095" gradientTransform="matrix(0.837209,0,0,0.837209,0,0)">
<stop offset="0" style="stop-color:rgb(40.000001%,40.000001%,40.000001%);stop-opacity:1;"/>
<stop offset="1" style="stop-color:rgb(80.000001%,80.000001%,80.000001%);stop-opacity:1;"/>
</linearGradient>
</defs>
<g id="surface3742385">
<path style=" stroke:none;fill-rule:nonzero;fill:url(#radial0);" d="M 15 76.890625 C 15 83.4375 42.511719 120 99.691406 120 C 102.246094 120 104.308594 117.925781 104.308594 115.363281 C 104.308594 110.230469 99.691406 97.34375 99.691406 92.183594 C 106.402344 85.722656 106.394531 78 111 78 C 115.605469 78 116.914062 60 111 60 C 104.308594 60 106.53125 51.796875 99.988281 45.640625 C 99.988281 33.1875 108.921875 27.160156 108.921875 22.636719 C 108.925781 20.074219 106.859375 18 104.308594 18 C 33.679688 18 25.027344 59.214844 21.230469 71.125 C 19.277344 73.835938 15 73.660156 15 76.890625 Z M 15 76.890625 "/>
<path style=" stroke:none;fill-rule:nonzero;fill:url(#radial1);" d="M 12 76.890625 C 12 85.917969 28.089844 100.964844 62.527344 100.964844 C 84.601562 100.96875 100.648438 78 111 78 C 115.605469 78 118.140625 92.179688 122.769531 92.179688 C 124.402344 92.179688 132 80.851562 132 69 C 132 57.148438 124.636719 45.820312 123 45.820312 C 118.636719 45.820312 116.914062 60 111 60 C 104.308594 60 84.546875 34.351562 59.367188 34.351562 C 30.351562 34.351562 24.796875 57.089844 21 69 C 19.046875 71.710938 12 73.660156 12 76.890625 Z M 12 76.890625 "/>
<path style=" stroke:none;fill-rule:nonzero;fill:url(#radial2);" d="M 96 74.414062 C 96.058594 78.230469 95.710938 82.390625 95.027344 86.671875 C 93.277344 87.957031 91.453125 89.28125 89.550781 90.601562 C 91.183594 81.871094 93 68.859375 93 54 C 93 54 95.816406 62.65625 96 74.414062 Z M 61.25 100.933594 C 61.6875 100.9375 62.089844 100.96875 62.527344 100.96875 C 64.03125 100.96875 65.503906 100.84375 66.949219 100.644531 C 68.398438 92.320312 69 79.894531 69 74.414062 C 69 54 66 39 66 39 C 66 58.070312 63.007812 86.101562 61.25 100.933594 Z M 70.546875 99.972656 C 72.550781 99.480469 74.476562 98.789062 76.367188 98.015625 C 77.515625 89.890625 78 79.339844 78 74.414062 C 78 57 75 45 75 45 C 75 63.046875 72.320312 86.433594 70.546875 99.972656 Z M 80.339844 96.199219 C 82.273438 95.207031 84.140625 94.132812 85.945312 92.988281 C 86.644531 88.597656 87 84.328125 87 80.414062 C 87 63 84 51 84 51 C 84 73.894531 84 77.371094 80.339844 96.199219 Z M 80.339844 96.199219 "/>
<path style=" stroke:none;fill-rule:nonzero;fill:url(#linear0);" d="M 132 69 C 132 80.851562 124.402344 92.179688 122.769531 92.179688 C 118.140625 92.179688 115.609375 78 111 78 C 98.96875 84.613281 111 104.140625 111 114 C 111 117.804688 108.90625 120 105 120 L 102 120 C 107.089844 111.394531 96 110.164062 96 99 C 96 86.28125 106.878906 78 111 78 C 111 78 117 74.417969 117 69 C 117 63.582031 111 60 111 60 C 106.878906 60 96 51.71875 96 39 C 96 27.835938 107.089844 26.605469 102 18 L 105 18 C 108.90625 18 111 20.195312 111 24 C 111 33.859375 98.96875 53.386719 111 60 C 116.914062 60 118.632812 45.820312 123 45.820312 C 124.636719 45.820312 132 57.148438 132 69 Z M 37.152344 57 C 28.707031 57 22.457031 64.453125 21 69 C 28.09375 73.898438 25.785156 84.25 23.558594 91.816406 C 24.683594 92.507812 25.886719 93.183594 27.179688 93.828125 C 29.636719 96.101562 32.46875 98.4375 35.675781 100.730469 C 34.683594 90.0625 54 90.0625 54 75 C 54 66 49.0625 57 37.152344 57 Z M 37.152344 57 "/>
<path style=" stroke:none;fill-rule:nonzero;fill:rgb(100%,100%,100%);fill-opacity:1;" d="M 45 72 C 45 75.3125 42.3125 78 39 78 C 35.6875 78 33 75.3125 33 72 C 33 68.6875 35.6875 66 39 66 C 42.3125 66 45 68.6875 45 72 Z M 45 72 "/>
<path style=" stroke:none;fill-rule:nonzero;fill:rgb(12.941177%,12.941177%,12.941177%);fill-opacity:1;" d="M 42 72 C 42 73.65625 40.65625 75 39 75 C 37.34375 75 36 73.65625 36 72 C 36 70.34375 37.34375 69 39 69 C 40.65625 69 42 70.34375 42 72 Z M 42 72 "/>
<path style=" stroke:none;fill-rule:nonzero;fill:url(#linear1);" d="M 117 69 C 117 69.847656 116.816406 70.636719 116.570312 71.386719 L 130.820312 77.496094 C 131.539062 74.800781 132 71.914062 132 69 C 132 66.078125 131.550781 63.1875 130.851562 60.492188 L 116.570312 66.613281 C 116.816406 67.363281 117 68.152344 117 69 Z M 117 69 "/>
</g>
</svg>
