<svg xmlns="http://www.w3.org/2000/svg"  viewBox="0 0 48 48" width="256px" height="256px"><radialGradient id="7sPoDIz9ACUOugt07vCupa" cx="24.639" cy="23.495" r="20.914" gradientTransform="matrix(1 0 0 1.0045 0 -.182)" gradientUnits="userSpaceOnUse"><stop offset=".117" stop-color="#ff7300"/><stop offset=".334" stop-color="#f78000"/><stop offset=".477" stop-color="#f08c00"/><stop offset="1" stop-color="#ffb300"/></radialGradient><path fill="url(#7sPoDIz9ACUOugt07vCupa)" d="M5,25.63C5,27.812,14.171,40,33.231,40c0.851,0,1.538-0.691,1.538-1.545	c0-1.712-1.538-6.007-1.538-7.727C35.468,28.574,35.465,26,37,26s1.972-6,0-6c-2.231,0-1.489-2.735-3.671-4.786	c0-4.151,2.978-6.16,2.978-7.669C36.308,6.691,35.62,6,34.769,6C11.226,6,8.342,19.738,7.077,23.708C6.426,24.612,5,24.553,5,25.63z"/><radialGradient id="7sPoDIz9ACUOugt07vCupb" cx="20.795" cy="23.52" r="18.174" gradientTransform="matrix(1 0 0 .7046 0 6.874)" gradientUnits="userSpaceOnUse"><stop offset="0" stop-color="#ffe16e"/><stop offset=".629" stop-color="#ffd226"/><stop offset=".703" stop-color="#fecd25"/><stop offset=".795" stop-color="#fcbd20"/><stop offset=".897" stop-color="#f9a41a"/><stop offset=".999" stop-color="#f58311"/></radialGradient><path fill="url(#7sPoDIz9ACUOugt07vCupb)" d="M4,25.63c0,3.009,5.363,8.025,16.842,8.025C28.2,33.656,33.55,26,37,26	c1.535,0,2.38,4.727,3.923,4.727C41.468,30.727,44,26.95,44,23s-2.455-7.727-3-7.727c-1.455,0-2.028,4.727-4,4.727	c-2.231,0-8.818-8.55-17.211-8.55C10.117,11.45,8.265,19.03,7,23C6.349,23.904,4,24.553,4,25.63z"/><radialGradient id="7sPoDIz9ACUOugt07vCupc" cx="27.201" cy="32.469" r="20.205" gradientUnits="userSpaceOnUse"><stop offset="0" stop-color="#ff7300"/><stop offset=".438" stop-color="orange"/><stop offset=".804" stop-color="#ffc800"/><stop offset="1" stop-color="#ffd500"/></radialGradient><path fill="url(#7sPoDIz9ACUOugt07vCupc)" d="M32,24.805c0.02,1.272-0.096,2.658-0.324,4.085c-0.583,0.429-1.192,0.87-1.826,1.31	C30.395,27.291,31,22.953,31,18C31,18,31.939,20.886,32,24.805z M20.417,33.644c0.145,0.002,0.279,0.012,0.425,0.012	c0.502,0,0.992-0.042,1.475-0.108C22.8,30.773,23,26.631,23,24.805C23,18,22,13,22,13C22,19.357,21.003,28.7,20.417,33.644z M23.515,33.324c0.668-0.164,1.311-0.394,1.941-0.652C25.839,29.963,26,26.447,26,24.805C26,19,25,15,25,15	C25,21.015,24.107,28.811,23.515,33.324z M26.78,32.066c0.644-0.33,1.267-0.689,1.868-1.07C28.882,29.532,29,28.109,29,26.805	C29,21,28,17,28,17C28,24.631,28,25.791,26.78,32.066z"/><linearGradient id="7sPoDIz9ACUOugt07vCupd" x1="25.5" x2="25.5" y1="6.073" y2="38.967" gradientUnits="userSpaceOnUse"><stop offset="0" stop-color="#2c43c7"/><stop offset=".192" stop-color="#5d9cf5"/><stop offset=".52" stop-color="#2c43c7"/><stop offset="1" stop-color="#5d9cf5"/></linearGradient><path fill="url(#7sPoDIz9ACUOugt07vCupd)" d="M44,23c0,3.95-2.532,7.727-3.077,7.727C39.38,30.727,38.536,26,37,26	c-4.01,2.205,0,8.713,0,12c0,1.268-0.698,2-2,2h-1c1.697-2.868-2-3.279-2-7c0-4.24,3.626-7,5-7c0,0,0,0,0,0c0,0,2-1.194,2-3	c0-1.806-2-3-2-3c0,0,0,0,0,0c-1.374,0-5-2.76-5-7c0-3.721,3.697-4.132,2-7h1c1.302,0,2,0.732,2,2c0,3.287-4.01,9.795,0,12	c1.972,0,2.544-4.727,4-4.727C41.545,15.273,44,19.05,44,23z M12.384,19C9.569,19,7.486,21.485,7,23	c2.364,1.633,1.595,5.083,0.853,7.605c0.375,0.231,0.776,0.456,1.207,0.671c0.819,0.758,1.763,1.537,2.832,2.301	C11.561,30.021,18,30.021,18,25C18,22,16.354,19,12.384,19z"/><circle cx="13" cy="24" r="2" fill="#fff"/><circle cx="13" cy="24" r="1" fill="#212121"/><linearGradient id="7sPoDIz9ACUOugt07vCupe" x1="38.856" x2="44" y1="22.998" y2="22.998" gradientUnits="userSpaceOnUse"><stop offset="0" stop-color="#5d9cf5"/><stop offset="1" stop-color="#2c43c7"/></linearGradient><path fill="url(#7sPoDIz9ACUOugt07vCupe)" d="M39,23c0,0.283-0.061,0.545-0.143,0.796l4.75,2.036C43.846,24.934,44,23.972,44,23	c0-0.974-0.15-1.937-0.383-2.836l-4.76,2.04C38.939,22.455,39,22.717,39,23z"/></svg>