<?xml version="1.0" encoding="UTF-8"?>
<svg xmlns="http://www.w3.org/2000/svg" xmlns:xlink="http://www.w3.org/1999/xlink" viewBox="0 0 256 256" width="256px" height="256px">
<defs>
<radialGradient id="radial0" gradientUnits="userSpaceOnUse" cx="88.289749" cy="83.917107" fx="88.289749" fy="83.917107" r="74.941833" gradientTransform="matrix(1.488372,0,0,1.488372,0,0)">
<stop offset="0.117" style="stop-color:rgb(100%,45.09804%,0%);stop-opacity:1;"/>
<stop offset="0.334" style="stop-color:rgb(96.862745%,50.196081%,0%);stop-opacity:1;"/>
<stop offset="0.477" style="stop-color:rgb(94.117647%,13.725491%,0%);stop-opacity:1;"/>
<stop offset="1" style="stop-color:rgb(100%,70.19608%,0%);stop-opacity:1;"/>
</radialGradient>
<radialGradient id="radial1" gradientUnits="userSpaceOnUse" cx="74.515419" cy="84.015518" fx="74.515419" fy="84.015518" r="65.123497" gradientTransform="matrix(1.488372,0,0,1.488372,0,0)">
<stop offset="0" style="stop-color:rgb(100%,88.235295%,43.137255%);stop-opacity:1;"/>
<stop offset="0.629" style="stop-color:rgb(100%,32.156864%,0%);stop-opacity:1;"/>
<stop offset="0.703" style="stop-color:rgb(99.607843%,80.392158%,14.509805%);stop-opacity:1;"/>
<stop offset="0.795" style="stop-color:rgb(98.823529%,74.117649%,12.54902%);stop-opacity:1;"/>
<stop offset="0.897" style="stop-color:rgb(97.647059%,64.313728%,10.196079%);stop-opacity:1;"/>
<stop offset="0.999" style="stop-color:rgb(96.078432%,51.372552%,6.666667%);stop-opacity:1;"/>
</radialGradient>
<radialGradient id="radial2" gradientUnits="userSpaceOnUse" cx="97.470253" cy="116.347252" fx="97.470253" fy="116.347252" r="72.401253" gradientTransform="matrix(1.488372,0,0,1.488372,0,0)">
<stop offset="0" style="stop-color:rgb(100%,45.09804%,0%);stop-opacity:1;"/>
<stop offset="0.438" style="stop-color:rgb(100%,64.705884%,0%);stop-opacity:1;"/>
<stop offset="0.804" style="stop-color:rgb(100%,78.431374%,0%);stop-opacity:1;"/>
<stop offset="1" style="stop-color:rgb(100%,83.529413%,0%);stop-opacity:1;"/>
</radialGradient>
<linearGradient id="linear0" gradientUnits="userSpaceOnUse" x1="91.375" y1="21.76158" x2="91.375" y2="139.631744" gradientTransform="matrix(1.488372,0,0,1.488372,0,0)">
<stop offset="0" style="stop-color:rgb(17.254902%,26.274511%,78.039217%);stop-opacity:1;"/>
<stop offset="0.192" style="stop-color:rgb(36.470589%,61.176473%,96.078432%);stop-opacity:1;"/>
<stop offset="0.52" style="stop-color:rgb(17.254902%,26.274511%,78.039217%);stop-opacity:1;"/>
<stop offset="1" style="stop-color:rgb(36.470589%,61.176473%,96.078432%);stop-opacity:1;"/>
</linearGradient>
<linearGradient id="linear1" gradientUnits="userSpaceOnUse" x1="139.233994" y1="82.4095" x2="157.666672" y2="82.4095" gradientTransform="matrix(1.488372,0,0,1.488372,0,0)">
<stop offset="0" style="stop-color:rgb(36.470589%,61.176473%,96.078432%);stop-opacity:1;"/>
<stop offset="1" style="stop-color:rgb(17.254902%,26.274511%,78.039217%);stop-opacity:1;"/>
</linearGradient>
</defs>
<g id="surface29208489">
<path style=" stroke:none;fill-rule:nonzero;fill:url(#radial0);" d="M 26.667969 136.691406 C 26.667969 148.332031 75.578125 213.332031 177.230469 213.332031 C 181.769531 213.332031 185.433594 209.648438 185.433594 205.09375 C 185.433594 195.960938 177.230469 173.054688 177.230469 163.882812 C 189.164062 152.394531 189.148438 138.667969 197.332031 138.667969 C 205.519531 138.667969 207.851562 106.667969 197.332031 106.667969 C 185.433594 106.667969 189.390625 92.078125 177.753906 81.140625 C 177.753906 59.003906 193.636719 48.289062 193.636719 40.238281 C 193.644531 35.683594 189.972656 32 185.433594 32 C 59.871094 32 44.492188 105.269531 37.742188 126.441406 C 34.273438 131.265625 26.667969 130.949219 26.667969 136.691406 Z M 26.667969 136.691406 "/>
<path style=" stroke:none;fill-rule:nonzero;fill:url(#radial1);" d="M 21.332031 136.691406 C 21.332031 152.742188 49.9375 179.492188 111.15625 179.492188 C 150.398438 179.5 178.933594 138.667969 197.332031 138.667969 C 205.519531 138.667969 210.027344 163.878906 218.257812 163.878906 C 221.164062 163.878906 234.667969 143.734375 234.667969 122.667969 C 234.667969 101.601562 221.574219 81.457031 218.667969 81.457031 C 210.90625 81.457031 207.851562 106.667969 197.332031 106.667969 C 185.433594 106.667969 150.304688 61.066406 105.542969 61.066406 C 53.957031 61.066406 44.078125 101.492188 37.332031 122.667969 C 33.863281 127.488281 21.332031 130.949219 21.332031 136.691406 Z M 21.332031 136.691406 "/>
<path style=" stroke:none;fill-rule:nonzero;fill:url(#radial2);" d="M 170.667969 132.292969 C 170.773438 139.078125 170.15625 146.46875 168.9375 154.078125 C 165.828125 156.367188 162.582031 158.71875 159.199219 161.066406 C 162.105469 145.550781 165.332031 122.414062 165.332031 96 C 165.332031 96 170.339844 111.390625 170.667969 132.292969 Z M 108.890625 179.433594 C 109.664062 179.445312 110.378906 179.5 111.15625 179.5 C 113.835938 179.5 116.449219 179.273438 119.023438 178.921875 C 121.601562 164.121094 122.667969 142.03125 122.667969 132.292969 C 122.667969 96 117.332031 69.332031 117.332031 69.332031 C 117.332031 103.238281 112.015625 153.066406 108.890625 179.433594 Z M 125.414062 177.726562 C 128.976562 176.851562 132.40625 175.625 135.765625 174.25 C 137.808594 159.800781 138.667969 141.050781 138.667969 132.292969 C 138.667969 101.332031 133.332031 80 133.332031 80 C 133.332031 112.078125 128.570312 153.660156 125.414062 177.726562 Z M 142.828125 171.019531 C 146.261719 169.257812 149.585938 167.34375 152.789062 165.3125 C 154.039062 157.503906 154.667969 149.914062 154.667969 142.960938 C 154.667969 112 149.332031 90.667969 149.332031 90.667969 C 149.332031 131.367188 149.332031 137.550781 142.828125 171.019531 Z M 142.828125 171.019531 "/>
<path style=" stroke:none;fill-rule:nonzero;fill:url(#linear0);" d="M 234.667969 122.667969 C 234.667969 143.734375 221.164062 163.878906 218.257812 163.878906 C 210.027344 163.878906 205.523438 138.667969 197.332031 138.667969 C 175.945312 150.425781 197.332031 185.136719 197.332031 202.667969 C 197.332031 209.429688 193.609375 213.332031 186.667969 213.332031 L 181.332031 213.332031 C 190.382812 198.039062 170.667969 195.84375 170.667969 176 C 170.667969 153.386719 190.003906 138.667969 197.332031 138.667969 C 197.332031 138.667969 208 132.296875 208 122.667969 C 208 113.035156 197.332031 106.667969 197.332031 106.667969 C 190.003906 106.667969 170.667969 91.945312 170.667969 69.332031 C 170.667969 49.488281 190.382812 47.296875 181.332031 32 L 186.667969 32 C 193.609375 32 197.332031 35.902344 197.332031 42.667969 C 197.332031 60.199219 175.945312 94.90625 197.332031 106.667969 C 207.851562 106.667969 210.902344 81.457031 218.667969 81.457031 C 221.574219 81.457031 234.667969 101.601562 234.667969 122.667969 Z M 66.046875 101.332031 C 51.035156 101.332031 39.925781 114.585938 37.332031 122.667969 C 49.941406 131.375 45.839844 149.777344 41.882812 163.226562 C 43.882812 164.457031 46.019531 165.660156 48.320312 166.804688 C 52.6875 170.847656 57.722656 175.003906 63.425781 179.078125 C 61.660156 160.113281 96 160.113281 96 133.332031 C 96 117.332031 87.222656 101.332031 66.046875 101.332031 Z M 66.046875 101.332031 "/>
<path style=" stroke:none;fill-rule:nonzero;fill:rgb(100%,100%,100%);fill-opacity:1;" d="M 80 128 C 80 133.890625 75.222656 138.667969 69.332031 138.667969 C 63.441406 138.667969 58.667969 133.890625 58.667969 128 C 58.667969 122.109375 63.441406 117.332031 69.332031 117.332031 C 75.222656 117.332031 80 122.109375 80 128 Z M 80 128 "/>
<path style=" stroke:none;fill-rule:nonzero;fill:rgb(12.941177%,12.941177%,12.941177%);fill-opacity:1;" d="M 74.667969 128 C 74.667969 130.945312 72.277344 133.332031 69.332031 133.332031 C 66.386719 133.332031 64 130.945312 64 128 C 64 125.054688 66.386719 122.667969 69.332031 122.667969 C 72.277344 122.667969 74.667969 125.054688 74.667969 128 Z M 74.667969 128 "/>
<path style=" stroke:none;fill-rule:nonzero;fill:url(#linear1);" d="M 208 122.667969 C 208 124.175781 207.675781 125.574219 207.238281 126.910156 L 232.570312 137.769531 C 233.84375 132.980469 234.667969 127.851562 234.667969 122.667969 C 234.667969 117.472656 233.867188 112.335938 232.625 107.542969 L 207.238281 118.421875 C 207.675781 119.761719 208 121.15625 208 122.667969 Z M 208 122.667969 "/>
</g>
</svg>
