<svg id="Capa_1" enable-background="new 0 0 511.996 511.996" height="512" viewBox="0 0 511.996 511.996" width="512" xmlns="http://www.w3.org/2000/svg"><g><g><path d="m376.002 60.998h-120-120c-8.291 0-15 6.709-15 15 0 36.65 18.809 70.137 50.332 89.575 2.432 1.494 5.156 2.227 7.881 2.227 3.867 0 7.705-1.494 10.605-4.395l66.182-66.194 66.182 66.194c2.9 2.9 6.738 4.395 10.605 4.395 2.725 0 5.449-.732 7.881-2.227 31.523-19.438 50.332-52.925 50.332-89.575 0-8.291-6.709-15-15-15z" fill="#c4e1ff"/><path d="m322.183 163.405c2.9 2.9 6.738 4.395 10.605 4.395 2.725 0 5.449-.732 7.881-2.227 31.523-19.438 50.332-52.925 50.332-89.575 0-8.291-6.709-15-15-15h-120v36.213z" fill="#b3ccff"/><g><g><g><g><path d="m507.492 305.498-241-240c-2.7-2.85-6.6-4.5-10.5-4.5s-7.8 1.65-10.5 4.5l-240.99 240c-4.76 4.47-5.72 11.36-3 17.1 19.5 39.3 54.39 71.1 97.59 93.3l44.4-71.1-17.1 83.1c34.2 13.5 73.2 21.3 114.6 22.8l15-89.7 15 89.7c41.4-1.5 80.1-9.3 114.3-22.8l-16.8-83.1 44.7 71.1c43.2-22.5 77.8-54 97.3-93.3 2.72-5.74 1.77-12.63-3-17.1z" fill="#d9f2ff"/></g></g></g></g><path d="m510.492 322.598c-19.5 39.3-54.1 70.8-97.3 93.3l-44.7-71.1 16.8 83.1c-34.2 13.5-72.9 21.3-114.3 22.8l-15-89.7v-300c3.9 0 7.8 1.65 10.5 4.5l241 240c4.77 4.47 5.72 11.36 3 17.1z" fill="#c4e1ff"/><g id="Seashell_1_"><g><path d="m181.302 304.598-54.901 123.3c-9.3-3.6-18.6-7.5-27.299-12.001l54.6-123.3c3.6-7.5 12.299-11.1 19.799-7.8 7.501 3.6 11.101 12.301 7.801 19.801z" fill="#c4e1ff"/></g></g></g><g><path d="m413.19 415.897h-.3l-27.299 12.001h-.3l-54.6-123.3c-3.3-7.5.3-16.201 7.8-19.801 7.5-3.3 16.199.3 19.799 7.8z" fill="#b3ccff"/></g><g><g><path d="m271.002 315.998v134.7c-4.799.3-9.901.3-15 .3s-10.201 0-15-.3v-134.7c0-8.401 6.599-15 15-15s15 6.599 15 15z" fill="#c4e1ff"/></g></g><path d="m271.002 450.698v-134.7c0-8.401-6.599-15-15-15v150c5.099 0 10.201 0 15-.3z" fill="#b3ccff"/></g></svg>